<svg id="svg" version="1.1" xmlns="http://www.w3.org/2000/svg" style="display: block;" viewBox="0 0 1024 1024"><path d="M0 0 C337.92 0 675.84 0 1024 0 C1024 337.92 1024 675.84 1024 1024 C686.08 1024 348.16 1024 0 1024 C0 686.08 0 348.16 0 0 Z " transform="translate(0,0)" style="fill: #F4F1F1;"/><path d="M0 0 C1.7639598 -0.00302489 3.52791828 -0.00691606 5.29187447 -0.01159257 C10.11220248 -0.02183677 14.93245582 -0.01969996 19.75278986 -0.01541197 C24.96132029 -0.01293841 30.16983304 -0.02196641 35.37835693 -0.02944946 C45.56927521 -0.04217834 55.76016711 -0.04399263 65.951092 -0.0416492 C74.23118206 -0.03986483 82.51126412 -0.04161821 90.79135323 -0.04587364 C92.56020482 -0.04676643 92.56020482 -0.04676643 94.36479079 -0.04767724 C96.76042572 -0.048889 99.15606066 -0.05010313 101.55169559 -0.05131962 C123.99830476 -0.06218695 146.44489888 -0.06003575 168.89150888 -0.05393478 C189.43800813 -0.04875921 209.98446006 -0.06003936 230.53094994 -0.07903299 C251.62982001 -0.09838791 272.72866765 -0.10667198 293.82754666 -0.10290974 C305.67259821 -0.10099504 317.51760942 -0.10351195 329.36265373 -0.11762428 C339.43944613 -0.12950871 349.51617331 -0.13097564 359.59296655 -0.11883412 C364.73586351 -0.11292641 369.878641 -0.11189827 375.02153015 -0.12383652 C379.72578171 -0.13463009 384.4298131 -0.13167038 389.13405407 -0.11757483 C390.83902193 -0.11490995 392.54400669 -0.1173501 394.24895804 -0.1253107 C396.56066218 -0.13535834 398.87159225 -0.12704561 401.18326473 -0.1140337 C402.46894814 -0.11408871 403.75463156 -0.11414373 405.07927507 -0.11420041 C408.71765041 0.29434534 410.56507729 0.99371291 413.41798401 3.26069641 C416.15692086 6.81630501 415.69941593 11.04249843 415.67804623 15.33670902 C415.6818519 16.1612468 415.68565757 16.98578457 415.68957856 17.83530834 C415.69993855 20.6163324 415.69598003 23.39715401 415.69213867 26.17819214 C415.69658876 28.18513261 415.70190204 30.19207133 415.7080074 32.19900745 C415.72222673 37.72867144 415.72384994 43.25827933 415.72341049 48.78795898 C415.72505535 54.74673817 415.73811611 60.70549403 415.74960327 66.66426086 C415.77129192 79.02514629 415.77986346 91.38602061 415.78463828 103.74692164 C415.78489945 104.41912404 415.78516063 105.09132643 415.78542972 105.78389859 C415.78568999 106.45746822 415.78595026 107.13103785 415.78621843 107.82501868 C415.78930062 115.28913939 415.79580564 122.75325655 415.80243111 130.2173748 C415.82208569 152.77086114 415.8384845 175.32434364 415.84130764 197.87783909 C415.8414017 198.59951454 415.84149576 199.32118999 415.84159267 200.0647344 C415.84197115 202.98933038 415.84233515 205.91392636 415.84269565 208.83852235 C415.84296737 211.03971253 415.84324405 213.24090271 415.84352112 215.4420929 C415.84360914 216.16945501 415.84369716 216.89681711 415.84378785 217.6462205 C415.84668973 240.47209635 415.86875033 263.29788731 415.90504456 286.12373352 C415.94583095 311.77535732 415.96946668 337.42692329 415.96976715 363.07858127 C415.96986397 365.81798137 415.97003069 368.55738145 415.97024727 371.29678154 C415.97029138 371.97127509 415.9703355 372.64576863 415.97038095 373.34070138 C415.97149805 384.16746307 415.9888676 394.9941394 416.01206659 405.82087365 C416.03498658 416.72036772 416.03866324 427.61974183 416.02451729 438.51925094 C416.01736534 444.4172926 416.01813174 450.31504051 416.04092789 456.21304893 C416.06164027 461.62407743 416.05880352 467.03458866 416.03805304 472.4456123 C416.03458137 474.39198604 416.03936823 476.33839804 416.05375748 478.28472168 C416.17464812 495.77956721 413.41711526 512.01423437 404.41798401 527.26069641 C404.02224182 527.94003235 403.62649963 528.61936829 403.21876526 529.31929016 C402.16798401 531.01069641 402.16798401 531.01069641 400.41798401 533.26069641 C399.75798401 533.26069641 399.09798401 533.26069641 398.41798401 533.26069641 C398.19110901 533.83819641 397.96423401 534.41569641 397.73048401 535.01069641 C396.0899594 537.82302431 393.98019587 539.29040102 391.41798401 541.26069641 C393.03624336 541.26283394 393.03624336 541.26283394 394.68719482 541.26501465 C404.85469978 541.28168477 415.02180451 541.32445887 425.1890974 541.39278698 C430.41624883 541.42707658 435.64310737 541.45217005 440.87037659 541.45625305 C445.91512782 541.46053174 450.95921814 541.48895899 456.0037632 541.53412819 C457.92823245 541.54711691 459.85278074 541.55140602 461.77728844 541.5468502 C464.47359435 541.54195394 467.16796137 541.56799214 469.86402893 541.60127258 C471.05733574 541.58833412 471.05733574 541.58833412 472.27474976 541.57513428 C476.28666134 541.65813821 478.19353441 542.0850129 481.3901062 544.58706665 C483.95010838 547.96226904 484.41798401 550.03656729 484.41798401 554.26069641 C482.24557022 559.84690331 482.24557022 559.84690331 479.41798401 561.26069641 C477.73003747 561.35516441 476.03832896 561.38517602 474.34774101 561.38489491 C473.26531669 561.3871422 472.18289236 561.38938949 471.06766731 561.39170489 C469.26584669 561.38776437 469.26584669 561.38776437 467.42762566 561.38374424 C466.15566096 561.38489808 464.88369626 561.38605193 463.57318717 561.38724074 C460.01517059 561.39032601 456.45718234 561.38712125 452.89916786 561.3829626 C449.03875072 561.37954228 445.1783366 561.38189654 441.3179189 561.38354009 C434.54303042 561.38561884 427.76815071 561.38396155 420.99326324 561.37990189 C410.91915679 561.37388196 400.84505589 561.37356467 390.77094796 561.37444387 C373.82702694 561.37575972 356.8831098 561.37240901 339.93918991 561.36642647 C323.15524654 561.36051556 306.37130479 561.35666176 289.58736038 561.35557365 C288.54496508 561.35550491 287.50256978 561.35543617 286.42858675 561.35536535 C281.13509089 561.35502703 275.84159503 561.35472564 270.54809918 561.35443848 C233.02474588 561.35233637 195.5013947 561.3455943 157.9780426 561.33613586 C121.51775626 561.32695598 85.05747049 561.31987014 48.59718323 561.31562805 C47.47391623 561.31549653 46.35064924 561.315365 45.19334385 561.31522949 C33.91334635 561.313911 22.63334885 561.31263518 11.35335134 561.31139063 C-11.62664052 561.30885421 -34.60663234 561.30603296 -57.58662415 561.30303955 C-58.64327724 561.30290226 -59.69993033 561.30276497 -60.78860321 561.30262352 C-131.38640835 561.29341815 -201.98421232 561.27757241 -272.58201599 561.26069641 C-276.57029724 554.57905579 -276.57029724 554.57905579 -276.67576599 551.71382141 C-276.38185974 550.62327454 -276.38185974 550.62327454 -276.08201599 549.51069641 C-275.90670349 548.77335266 -275.73139099 548.03600891 -275.55076599 547.27632141 C-274.25555935 544.58145599 -273.19625951 543.75580831 -270.58201599 542.26069641 C-267.787427 541.95707667 -265.21205773 541.82312133 -262.41697693 541.82832336 C-261.18715088 541.81303589 -261.18715088 541.81303589 -259.93247986 541.79743958 C-257.2270476 541.7672861 -254.52196928 541.75804011 -251.81639099 541.74897766 C-249.93879518 541.73213271 -248.06121065 541.71398272 -246.18363953 541.69458008 C-241.2451785 541.647054 -236.30676325 541.61726149 -231.3681488 541.59114075 C-226.32736674 541.56134841 -221.28674242 541.51481352 -216.24607849 541.46968079 C-206.35814013 541.38361798 -196.47016933 541.3162859 -186.58201599 541.26069641 C-186.58201599 540.60069641 -186.58201599 539.94069641 -186.58201599 539.26069641 C-187.45019958 538.89138 -187.45019958 538.89138 -188.33592224 538.51460266 C-198.90576607 532.61387245 -204.08286355 519.30420031 -207.50915158 508.4049772 C-209.36984607 501.82696015 -209.26297054 495.18352133 -209.19674683 488.39920044 C-209.20036929 486.85879801 -209.20618314 485.31839947 -209.21396881 483.77801245 C-209.22888572 479.58941787 -209.21302473 475.40144437 -209.19166219 471.21289909 C-209.17406191 466.67928737 -209.18557091 462.14573266 -209.19332886 457.61210632 C-209.20396209 448.7513562 -209.18811783 439.89084514 -209.1631906 431.03013144 C-209.13518557 420.70905683 -209.13391736 410.38802987 -209.13374759 400.06692358 C-209.13256221 381.65807481 -209.10764149 363.24933556 -209.06907654 344.8405304 C-209.03167594 326.9759337 -209.0104765 309.11141662 -209.0075531 291.2467804 C-209.00737029 290.1448075 -209.00718748 289.04283461 -209.00699913 287.90746859 C-209.00682016 286.80739758 -209.00664119 285.70732657 -209.00645679 284.57392007 C-209.00609138 282.35901979 -209.005719 280.14411952 -209.00533962 277.92921925 C-209.00515411 276.83691566 -209.00496859 275.74461208 -209.00477746 274.61920838 C-209.00121014 257.5872094 -208.982766 240.55522271 -208.96284638 223.52323619 C-208.95582147 217.34984085 -208.95104016 211.17644842 -208.94788503 205.00304995 C-208.94284197 195.21967581 -208.93144582 185.43635703 -208.90658473 175.65301142 C-208.89534661 171.18263539 -208.88724927 166.71231387 -208.8877182 162.24192238 C-208.88802565 158.15343949 -208.87913485 154.06508573 -208.86275018 149.97663661 C-208.85841858 148.49452632 -208.85747169 147.01240164 -208.86017626 145.53028748 C-208.86332518 143.52186258 -208.85306963 141.51342984 -208.84207821 139.50503254 C-208.84012729 138.38767257 -208.83817636 137.2703126 -208.83616632 136.11909324 C-208.58095135 133.24872251 -208.20006726 131.62535418 -206.58201599 129.26069641 C-201.20149012 126.23415061 -196.65965045 125.88213631 -190.58201599 125.82319641 C-169.76225382 125.10034393 -150.52350506 116.46028683 -135.87107849 101.49116516 C-133.58201599 99.26069641 -133.58201599 99.26069641 -131.58201599 99.26069641 C-131.31518005 98.67030579 -131.04834412 98.07991516 -130.77342224 97.47163391 C-129.56122081 95.22210601 -128.28026768 93.72553624 -126.51951599 91.88569641 C-119.49026324 83.9741712 -114.35479378 74.69530373 -109.22996521 65.49067688 C-103.74320946 55.65532857 -97.88165593 46.82933277 -90.58201599 38.26069641 C-89.9697113 37.49757141 -89.35740662 36.73444641 -88.72654724 35.94819641 C-66.89638772 9.39940384 -32.92811196 -0.08045787 0 0 Z " transform="translate(405.58201599121094,222.7393035888672)" style="fill: #E5E2E2;"/><path d="M0 0 C1.7639598 -0.00302489 3.52791828 -0.00691606 5.29187447 -0.01159257 C10.11220248 -0.02183677 14.93245582 -0.01969996 19.75278986 -0.01541197 C24.96132029 -0.01293841 30.16983304 -0.02196641 35.37835693 -0.02944946 C45.56927521 -0.04217834 55.76016711 -0.04399263 65.951092 -0.0416492 C74.23118206 -0.03986483 82.51126412 -0.04161821 90.79135323 -0.04587364 C92.56020482 -0.04676643 92.56020482 -0.04676643 94.36479079 -0.04767724 C96.76042572 -0.048889 99.15606066 -0.05010313 101.55169559 -0.05131962 C123.99830476 -0.06218695 146.44489888 -0.06003575 168.89150888 -0.05393478 C189.43800813 -0.04875921 209.98446006 -0.06003936 230.53094994 -0.07903299 C251.62982001 -0.09838791 272.72866765 -0.10667198 293.82754666 -0.10290974 C305.67259821 -0.10099504 317.51760942 -0.10351195 329.36265373 -0.11762428 C339.43944613 -0.12950871 349.51617331 -0.13097564 359.59296655 -0.11883412 C364.73586351 -0.11292641 369.878641 -0.11189827 375.02153015 -0.12383652 C379.72578171 -0.13463009 384.4298131 -0.13167038 389.13405407 -0.11757483 C390.83902193 -0.11490995 392.54400669 -0.1173501 394.24895804 -0.1253107 C396.56066218 -0.13535834 398.87159225 -0.12704561 401.18326473 -0.1140337 C402.46894814 -0.11408871 403.75463156 -0.11414373 405.07927507 -0.11420041 C408.71765041 0.29434534 410.56507729 0.99371291 413.41798401 3.26069641 C416.15692086 6.81630501 415.69941593 11.04249843 415.67804623 15.33670902 C415.6818519 16.1612468 415.68565757 16.98578457 415.68957856 17.83530834 C415.69993855 20.6163324 415.69598003 23.39715401 415.69213867 26.17819214 C415.69658876 28.18513261 415.70190204 30.19207133 415.7080074 32.19900745 C415.72222673 37.72867144 415.72384994 43.25827933 415.72341049 48.78795898 C415.72505535 54.74673817 415.73811611 60.70549403 415.74960327 66.66426086 C415.77129192 79.02514629 415.77986346 91.38602061 415.78463828 103.74692164 C415.78489945 104.41912404 415.78516063 105.09132643 415.78542972 105.78389859 C415.78568999 106.45746822 415.78595026 107.13103785 415.78621843 107.82501868 C415.78930062 115.28913939 415.79580564 122.75325655 415.80243111 130.2173748 C415.82208569 152.77086114 415.8384845 175.32434364 415.84130764 197.87783909 C415.8414017 198.59951454 415.84149576 199.32118999 415.84159267 200.0647344 C415.84197115 202.98933038 415.84233515 205.91392636 415.84269565 208.83852235 C415.84296737 211.03971253 415.84324405 213.24090271 415.84352112 215.4420929 C415.84360914 216.16945501 415.84369716 216.89681711 415.84378785 217.6462205 C415.84668973 240.47209635 415.86875033 263.29788731 415.90504456 286.12373352 C415.94583095 311.77535732 415.96946668 337.42692329 415.96976715 363.07858127 C415.96986397 365.81798137 415.97003069 368.55738145 415.97024727 371.29678154 C415.97029138 371.97127509 415.9703355 372.64576863 415.97038095 373.34070138 C415.97149805 384.16746307 415.9888676 394.9941394 416.01206659 405.82087365 C416.03498658 416.72036772 416.03866324 427.61974183 416.02451729 438.51925094 C416.01736534 444.4172926 416.01813174 450.31504051 416.04092789 456.21304893 C416.06164027 461.62407743 416.05880352 467.03458866 416.03805304 472.4456123 C416.03458137 474.39198604 416.03936823 476.33839804 416.05375748 478.28472168 C416.17464812 495.77956721 413.41711526 512.01423437 404.41798401 527.26069641 C404.02224182 527.94003235 403.62649963 528.61936829 403.21876526 529.31929016 C402.16798401 531.01069641 402.16798401 531.01069641 400.41798401 533.26069641 C399.75798401 533.26069641 399.09798401 533.26069641 398.41798401 533.26069641 C398.19110901 533.83819641 397.96423401 534.41569641 397.73048401 535.01069641 C396.0899594 537.82302431 393.98019587 539.29040102 391.41798401 541.26069641 C393.03624336 541.26283394 393.03624336 541.26283394 394.68719482 541.26501465 C404.85469978 541.28168477 415.02180451 541.32445887 425.1890974 541.39278698 C430.41624883 541.42707658 435.64310737 541.45217005 440.87037659 541.45625305 C445.91512782 541.46053174 450.95921814 541.48895899 456.0037632 541.53412819 C457.92823245 541.54711691 459.85278074 541.55140602 461.77728844 541.5468502 C464.47359435 541.54195394 467.16796137 541.56799214 469.86402893 541.60127258 C471.05733574 541.58833412 471.05733574 541.58833412 472.27474976 541.57513428 C476.28666134 541.65813821 478.19353441 542.0850129 481.3901062 544.58706665 C483.95010838 547.96226904 484.41798401 550.03656729 484.41798401 554.26069641 C482.24557022 559.84690331 482.24557022 559.84690331 479.41798401 561.26069641 C477.73003747 561.35516441 476.03832896 561.38517602 474.34774101 561.38489491 C473.26531669 561.3871422 472.18289236 561.38938949 471.06766731 561.39170489 C469.26584669 561.38776437 469.26584669 561.38776437 467.42762566 561.38374424 C466.15566096 561.38489808 464.88369626 561.38605193 463.57318717 561.38724074 C460.01517059 561.39032601 456.45718234 561.38712125 452.89916786 561.3829626 C449.03875072 561.37954228 445.1783366 561.38189654 441.3179189 561.38354009 C434.54303042 561.38561884 427.76815071 561.38396155 420.99326324 561.37990189 C410.91915679 561.37388196 400.84505589 561.37356467 390.77094796 561.37444387 C373.82702694 561.37575972 356.8831098 561.37240901 339.93918991 561.36642647 C323.15524654 561.36051556 306.37130479 561.35666176 289.58736038 561.35557365 C288.54496508 561.35550491 287.50256978 561.35543617 286.42858675 561.35536535 C281.13509089 561.35502703 275.84159503 561.35472564 270.54809918 561.35443848 C233.02474588 561.35233637 195.5013947 561.3455943 157.9780426 561.33613586 C121.51775626 561.32695598 85.05747049 561.31987014 48.59718323 561.31562805 C47.47391623 561.31549653 46.35064924 561.315365 45.19334385 561.31522949 C33.91334635 561.313911 22.63334885 561.31263518 11.35335134 561.31139063 C-11.62664052 561.30885421 -34.60663234 561.30603296 -57.58662415 561.30303955 C-58.64327724 561.30290226 -59.69993033 561.30276497 -60.78860321 561.30262352 C-131.38640835 561.29341815 -201.98421232 561.27757241 -272.58201599 561.26069641 C-276.57029724 554.57905579 -276.57029724 554.57905579 -276.67576599 551.71382141 C-276.38185974 550.62327454 -276.38185974 550.62327454 -276.08201599 549.51069641 C-275.90670349 548.77335266 -275.73139099 548.03600891 -275.55076599 547.27632141 C-274.25555935 544.58145599 -273.19625951 543.75580831 -270.58201599 542.26069641 C-267.787427 541.95707667 -265.21205773 541.82312133 -262.41697693 541.82832336 C-261.18715088 541.81303589 -261.18715088 541.81303589 -259.93247986 541.79743958 C-257.2270476 541.7672861 -254.52196928 541.75804011 -251.81639099 541.74897766 C-249.93879518 541.73213271 -248.06121065 541.71398272 -246.18363953 541.69458008 C-241.2451785 541.647054 -236.30676325 541.61726149 -231.3681488 541.59114075 C-226.32736674 541.56134841 -221.28674242 541.51481352 -216.24607849 541.46968079 C-206.35814013 541.38361798 -196.47016933 541.3162859 -186.58201599 541.26069641 C-186.58201599 540.60069641 -186.58201599 539.94069641 -186.58201599 539.26069641 C-187.45019958 538.89138 -187.45019958 538.89138 -188.33592224 538.51460266 C-198.90576607 532.61387245 -204.08286355 519.30420031 -207.50915158 508.4049772 C-209.36984607 501.82696015 -209.26297054 495.18352133 -209.19674683 488.39920044 C-209.20036929 486.85879801 -209.20618314 485.31839947 -209.21396881 483.77801245 C-209.22888572 479.58941787 -209.21302473 475.40144437 -209.19166219 471.21289909 C-209.17406191 466.67928737 -209.18557091 462.14573266 -209.19332886 457.61210632 C-209.20396209 448.7513562 -209.18811783 439.89084514 -209.1631906 431.03013144 C-209.13518557 420.70905683 -209.13391736 410.38802987 -209.13374759 400.06692358 C-209.13256221 381.65807481 -209.10764149 363.24933556 -209.06907654 344.8405304 C-209.03167594 326.9759337 -209.0104765 309.11141662 -209.0075531 291.2467804 C-209.00737029 290.1448075 -209.00718748 289.04283461 -209.00699913 287.90746859 C-209.00682016 286.80739758 -209.00664119 285.70732657 -209.00645679 284.57392007 C-209.00609138 282.35901979 -209.005719 280.14411952 -209.00533962 277.92921925 C-209.00515411 276.83691566 -209.00496859 275.74461208 -209.00477746 274.61920838 C-209.00121014 257.5872094 -208.982766 240.55522271 -208.96284638 223.52323619 C-208.95582147 217.34984085 -208.95104016 211.17644842 -208.94788503 205.00304995 C-208.94284197 195.21967581 -208.93144582 185.43635703 -208.90658473 175.65301142 C-208.89534661 171.18263539 -208.88724927 166.71231387 -208.8877182 162.24192238 C-208.88802565 158.15343949 -208.87913485 154.06508573 -208.86275018 149.97663661 C-208.85841858 148.49452632 -208.85747169 147.01240164 -208.86017626 145.53028748 C-208.86332518 143.52186258 -208.85306963 141.51342984 -208.84207821 139.50503254 C-208.84012729 138.38767257 -208.83817636 137.2703126 -208.83616632 136.11909324 C-208.58095135 133.24872251 -208.20006726 131.62535418 -206.58201599 129.26069641 C-201.20149012 126.23415061 -196.65965045 125.88213631 -190.58201599 125.82319641 C-169.76225382 125.10034393 -150.52350506 116.46028683 -135.87107849 101.49116516 C-133.58201599 99.26069641 -133.58201599 99.26069641 -131.58201599 99.26069641 C-131.31518005 98.67030579 -131.04834412 98.07991516 -130.77342224 97.47163391 C-129.56122081 95.22210601 -128.28026768 93.72553624 -126.51951599 91.88569641 C-119.49026324 83.9741712 -114.35479378 74.69530373 -109.22996521 65.49067688 C-103.74320946 55.65532857 -97.88165593 46.82933277 -90.58201599 38.26069641 C-89.9697113 37.49757141 -89.35740662 36.73444641 -88.72654724 35.94819641 C-66.89638772 9.39940384 -32.92811196 -0.08045787 0 0 Z M-65.58201599 39.26069641 C-66.26264099 39.77889954 -66.94326599 40.29710266 -67.64451599 40.83100891 C-83.56391319 53.60504134 -94.23258352 74.212399 -100.58201599 93.26069641 C-100.67463522 95.30299322 -100.70575707 97.34825387 -100.70506382 99.39264965 C-100.70705469 100.68440168 -100.70904556 101.97615372 -100.71109676 103.30704975 C-100.70824449 104.74807567 -100.7052991 106.1891014 -100.70227051 107.63012695 C-100.70270774 109.15107745 -100.70358431 110.67202788 -100.7048645 112.19297791 C-100.70711483 116.39164752 -100.70308403 120.59029179 -100.69808872 124.78895818 C-100.69373461 129.37898571 -100.6951825 133.96901199 -100.69590664 138.55904102 C-100.69643919 147.47669154 -100.69181316 156.39433203 -100.68540531 165.31197997 C-100.67821749 175.62288938 -100.67741123 185.93379273 -100.67662048 196.2447052 C-100.67136585 223.47920387 -100.65740479 250.71370029 -100.64451599 277.94819641 C-100.62389099 338.77132141 -100.60326599 399.59444641 -100.58201599 462.26069641 C25.47798401 462.26069641 151.53798401 462.26069641 281.41798401 462.26069641 C281.58849344 345.49216614 281.58849344 345.49216614 281.71583557 228.72358704 C281.76124573 206.13471985 281.76124573 206.13471985 281.78755188 195.5584259 C281.80455051 188.17493864 281.81074499 180.79153992 281.80952454 173.40803528 C281.80815324 164.88480427 281.82066308 156.36172583 281.8500229 147.83854327 C281.86459964 143.48219371 281.87314078 139.12608103 281.86380816 134.76971149 C281.85546729 130.82042403 281.86582717 126.87161959 281.89032555 122.92240334 C281.89595801 121.50428975 281.89506395 120.08612962 281.88649511 118.66803074 C281.81718524 106.09700132 284.36512001 95.08999129 288.41798401 83.26069641 C289.07798401 83.26069641 289.73798401 83.26069641 290.41798401 83.26069641 C292.81618706 80.62384894 292.81618706 80.62384894 293.41798401 77.26069641 C300.94333049 73.36565723 307.95044113 71.9149235 316.35548401 71.44819641 C336.92940399 69.84806338 353.79057 61.58910538 369.41798401 48.26069641 C370.42860901 47.49757141 371.43923401 46.73444641 372.48048401 45.94819641 C380.21620149 38.87083787 386.55461877 29.91994426 392.41798401 21.26069641 C392.41798401 20.93069641 392.41798401 20.60069641 392.41798401 20.26069641 C339.96621965 20.16907725 287.5144634 20.09862537 235.06263471 20.05643509 C228.86573604 20.05143246 222.66883752 20.04625515 216.47193909 20.04096985 C214.62145623 20.03939599 214.62145623 20.03939599 212.73358988 20.03779033 C192.77641625 20.02040023 172.81928886 19.98887021 152.86214263 19.95208523 C132.37380859 19.91463701 111.88549872 19.89245235 91.39713186 19.88434243 C78.76171473 19.87886272 66.12642831 19.86157536 53.49105143 19.82903054 C44.81842448 19.80783475 36.1458648 19.80150782 27.47321386 19.8066909 C22.47468553 19.80924479 17.47638512 19.80541812 12.47789764 19.78387451 C7.89092309 19.76425012 3.30432732 19.76352821 -1.28266556 19.77710083 C-2.9316862 19.77877554 -4.58073158 19.77383677 -6.22970437 19.76116368 C-28.0787054 19.60317125 -48.46973761 25.24438944 -65.58201599 39.26069641 Z " transform="translate(405.58201599121094,222.7393035888672)" style="fill: #645A64;"/><path d="M0 0 C0.66 0 1.32 0 2 0 C2.09158987 55.67066122 2.16205619 111.34131494 2.20426132 167.01203671 C2.20926404 173.58704478 2.21444134 180.1620527 2.21972656 186.73706055 C2.2207758 188.04600578 2.22182505 189.354951 2.22290608 190.70356124 C2.24030313 211.88749131 2.27183699 233.07137789 2.30861118 254.25528217 C2.34604004 275.99792049 2.36823998 297.74053605 2.37635398 319.48320526 C2.3818377 332.89557429 2.39914694 346.30782036 2.43166587 359.72015154 C2.45283772 368.92212053 2.45919397 378.12402611 2.45400551 387.32601769 C2.45144792 392.63213344 2.45532105 397.93803459 2.4768219 403.24411201 C2.49639338 408.10977227 2.49720165 412.97507509 2.48359558 417.84075236 C2.48191581 419.59337019 2.48689975 421.34601101 2.49953273 423.09858412 C2.62630312 441.78441448 -1.08926308 457.84231469 -13.46484375 472.44921875 C-17.48769182 476.49686095 -22.01181102 479.28481159 -27 482 C-28.11375 482.61875 -29.2275 483.2375 -30.375 483.875 C-40.97121743 488.41623604 -56.12935646 487.28877486 -66.59765625 483.1484375 C-69.71084384 481.66018197 -72.34430647 480.21307794 -75 478 C-75 477.34 -75 476.68 -75 476 C-76.65 475.34 -78.3 474.68 -80 474 C-80 473.34 -80 472.68 -80 472 C-80.66 472 -81.32 472 -82 472 C-82.33 470.68 -82.66 469.36 -83 468 C-83.66 468 -84.32 468 -85 468 C-92.94158903 457.74400502 -96.12400795 445.08289818 -96.12584114 432.30894184 C-96.12844889 430.99468135 -96.13105664 429.68042086 -96.13374341 428.3263343 C-96.13158166 426.87977225 -96.12932502 425.43321033 -96.12698364 423.98664856 C-96.12813639 422.44078223 -96.12972495 420.89491618 -96.13171089 419.3490507 C-96.13588297 415.10839255 -96.13382309 410.86775691 -96.13072467 406.62709868 C-96.12846223 402.05109545 -96.13195436 397.47509609 -96.13470459 392.89909363 C-96.13915189 383.93840849 -96.13819052 374.97773172 -96.13529195 366.01704625 C-96.13303427 358.73654441 -96.13272698 351.45604492 -96.13381577 344.17554283 C-96.133969 343.13966105 -96.13412223 342.10377927 -96.13428011 341.03650713 C-96.13459983 338.93222279 -96.13492404 336.82793845 -96.1352527 334.72365411 C-96.13810433 314.99157525 -96.1348252 295.25950103 -96.12945233 275.52742293 C-96.1249826 258.58737142 -96.12576224 241.64732677 -96.13037109 224.70727539 C-96.13571902 205.0415114 -96.13783176 185.37575148 -96.13475883 165.70998687 C-96.13444027 163.61432787 -96.1341259 161.51866887 -96.13381577 159.42300987 C-96.13366149 158.39186039 -96.13350721 157.36071092 -96.13334826 156.29831449 C-96.13248391 149.02295485 -96.13394419 141.74759778 -96.13629532 134.47223854 C-96.13909584 125.61145947 -96.13834962 116.75068926 -96.13301457 107.88991121 C-96.13038129 103.36694192 -96.12936626 98.84398741 -96.13266373 94.32101822 C-96.13563418 90.18414903 -96.13402128 86.04730842 -96.12868617 81.91044184 C-96.12756524 80.41059011 -96.12814607 78.91073599 -96.13056196 77.41088579 C-96.1335857 75.37843708 -96.12989806 73.34598165 -96.12584114 71.31353474 C-96.12567879 70.1827249 -96.12551644 69.05191506 -96.12534916 67.88683826 C-95.8662076 61.91871079 -94.3350131 60.14653427 -90 56 C-89.57460938 55.319375 -89.14921875 54.63875 -88.7109375 53.9375 C-86.98233572 51.34921926 -85.5925402 49.75316913 -83 48 C-79.5390579 47.4397623 -76.30965208 47.26871745 -72.81762695 47.21630859 C-55.58968952 46.93942114 -38.45500452 40.18396885 -25.0390625 29.50390625 C-23 28 -23 28 -21 28 C-20.79375 27.443125 -20.5875 26.88625 -20.375 26.3125 C-19 24 -19 24 -16.23828125 21.79296875 C-12.75306893 18.95442668 -10.33908101 15.6893601 -7.8125 12 C-7.17538086 11.09507812 -7.17538086 11.09507812 -6.52539062 10.171875 C-4.66809798 7.51447339 -2.93259552 4.88184575 -1.32421875 2.0625 C-0.88722656 1.381875 -0.45023438 0.70125 0 0 Z " transform="translate(801,277)" style="fill: #86C5BB;"/><path d="M0 0 C1.71629855 -0.00087307 3.43259684 -0.00262591 5.14889371 -0.00517833 C9.84658621 -0.00963598 14.54418696 -0.00166999 19.24186778 0.00837779 C24.31467728 0.01703285 29.38748182 0.01409068 34.46029663 0.01257324 C43.24315232 0.01152569 52.02597824 0.01778873 60.80882645 0.02904892 C73.50727136 0.04531855 86.20570192 0.05051343 98.90415613 0.0530249 C119.50767596 0.05739971 140.11117994 0.070703 160.71469116 0.08963013 C180.72640911 0.10799447 200.73812274 0.12214827 220.74984741 0.13064575 C222.60083081 0.13143392 222.60083081 0.13143392 224.48920782 0.13223802 C230.67990695 0.13484813 236.87060611 0.13737554 243.06130528 0.13986182 C294.40101909 0.16058764 345.74071568 0.19580734 397.08041382 0.24050903 C394.51482226 4.81375001 391.97383 8.832922 388.58041382 12.86550903 C387.45119507 14.21515747 387.45119507 14.21515747 386.29916382 15.59207153 C385.20088257 16.9030481 385.20088257 16.9030481 384.08041382 18.24050903 C383.39849976 19.10933716 382.71658569 19.97816528 382.01400757 20.87332153 C370.16676196 35.37722222 348.13890345 48.24708514 329.61019897 50.54714966 C325.96893251 50.91358299 322.33040402 51.23996317 318.67782593 51.47024536 C311.32549783 51.98403926 304.54638102 53.58624734 298.08041382 57.24050903 C296.85513434 59.19071987 296.85513434 59.19071987 296.08041382 61.24050903 C295.75041382 61.90050903 295.42041382 62.56050903 295.08041382 63.24050903 C294.42041382 63.24050903 293.76041382 63.24050903 293.08041382 63.24050903 C291.05494169 69.73351189 289.29711719 76.25065879 287.72885132 82.86941528 C287.08041382 85.24050903 287.08041382 85.24050903 286.08041382 86.24050903 C284.70059082 86.34863921 283.31588393 86.39620643 281.93197632 86.41629028 C280.67127319 86.45206177 280.67127319 86.45206177 279.38510132 86.48855591 C277.60669533 86.53133098 275.82797596 86.56268666 274.04916382 86.58230591 C268.99727497 86.586213 268.99727497 86.586213 264.97885132 89.28347778 C264.68236694 89.9292981 264.38588257 90.57511841 264.08041382 91.24050903 C263.53514038 90.29949341 262.98986694 89.35847778 262.42807007 88.38894653 C256.32369266 78.17577465 250.54342961 71.78817282 238.61166382 68.71316528 C228.65481617 66.8539391 219.69327741 68.99262985 211.20541382 74.55300903 C208.73343129 76.44543585 207.07998032 78.48559783 205.33041382 81.05300903 C204.58791382 82.10488403 203.84541382 83.15675903 203.08041382 84.24050903 C202.09041382 84.24050903 201.10041382 84.24050903 200.08041382 84.24050903 C199.75041382 84.57050903 199.42041382 84.90050903 199.08041382 85.24050903 C197.51852637 85.34016591 195.95212503 85.36974138 194.38706303 85.3719368 C193.36567047 85.37577794 192.34427792 85.37961909 191.29193407 85.38357663 C189.58827792 85.38227691 189.58827792 85.38227691 187.85020447 85.38095093 C186.65428033 85.38392205 185.4583562 85.38689317 184.22619194 85.38995433 C180.8916356 85.39715787 177.55713075 85.39981544 174.2225703 85.4005518 C170.63218979 85.40239751 167.04182056 85.40994233 163.45144653 85.41668701 C155.59418558 85.43029021 147.73692971 85.43629802 139.87965894 85.44069767 C134.97780006 85.4434565 130.07594316 85.44769317 125.17408562 85.45220184 C111.61423777 85.46439666 98.05439152 85.47469584 84.49453831 85.47807693 C83.62606646 85.4782965 82.7575946 85.47851607 81.86280542 85.47874229 C80.99220468 85.47896056 80.12160394 85.47917884 79.22462136 85.47940373 C77.46032496 85.47984721 75.69602857 85.48029377 73.93173218 85.48074341 C72.61899217 85.48107555 72.61899217 85.48107555 71.27973216 85.48141441 C57.09033086 85.48536472 42.90098084 85.50282487 28.71159936 85.52610293 C14.15925629 85.54978466 -0.393061 85.56227732 -14.94542366 85.56344485 C-23.12240614 85.56436336 -31.2993218 85.57015974 -39.47628593 85.58826447 C-46.43749703 85.60362259 -53.39862065 85.6088114 -60.35984545 85.60052636 C-63.91450882 85.59660465 -67.46899582 85.59762285 -71.02363777 85.61158371 C-74.86996695 85.62655267 -78.7160444 85.61850131 -82.56239319 85.60800171 C-84.26270326 85.62008632 -84.26270326 85.62008632 -85.99736303 85.63241506 C-87.02136333 85.62582521 -88.04536363 85.61923537 -89.10039425 85.61244583 C-89.98915719 85.61304292 -90.87792013 85.61364001 -91.79361528 85.61425519 C-92.49518568 85.49091896 -93.19675608 85.36758273 -93.91958618 85.24050903 C-96.64153444 81.15758664 -96.64151243 77.94928922 -95.91958618 73.24050903 C-91.04854172 57.46054749 -82.91520203 42.51614886 -71.91958618 30.24050903 C-70.94029131 29.01144451 -69.96111026 27.78228927 -68.98208618 26.55300903 C-58.07640726 14.07239556 -42.68644461 6.4602699 -26.91958618 2.24050903 C-26.27265167 2.06644598 -25.62571716 1.89238293 -24.95917857 1.71304524 C-16.69497205 -0.22675972 -8.42995003 -0.03196405 0 0 Z " transform="translate(400.9195861816406,242.75949096679688)" style="fill: #F8E2B6;"/><path d="M0 0 C155.76 0 311.52 0 472 0 C472.66 6.93 473.32 13.86 474 21 C476.51506867 29.42189522 476.51506867 29.42189522 479.6875 37.4375 C482 42.66961652 482 42.66961652 482 46 C482.66 46 483.32 46 484 46 C487 49.46153846 487 49.46153846 487 52 C487.66 52 488.32 52 489 52 C490.2890625 53.75 490.2890625 53.75 491.625 56 C492.07101562 56.7425 492.51703125 57.485 492.9765625 58.25 C493.31429688 58.8275 493.65203125 59.405 494 60 C436.46070466 60.068654 378.92141306 60.12152871 321.38208485 60.15319599 C314.59033514 60.15693796 307.79858552 60.16082762 301.00683594 60.16479492 C300.33097979 60.1651872 299.65512364 60.16557948 298.958787 60.16598364 C277.05735269 60.17876478 255.15594162 60.20129654 233.25452138 60.22889166 C210.10728739 60.25800346 186.96006724 60.27599019 163.81281364 60.28226548 C149.94748999 60.28638353 136.08223307 60.2993941 122.21692996 60.3237494 C112.71131199 60.33959694 103.20572857 60.34440257 93.70009835 60.34050413 C88.2143919 60.33858107 82.72880213 60.3415466 77.24311638 60.35761642 C72.21924971 60.37222592 67.19557806 60.37294543 62.17170237 60.36269668 C60.35592016 60.36143018 58.54012572 60.36522675 56.72436751 60.37464955 C39.73684135 60.45766712 28.16729599 57.27515807 15.41796875 45.64453125 C2.34114974 31.98850049 0 19.00931017 0 0 Z " transform="translate(215,704)" style="fill: #F6CC7B;"/><path d="M0 0 C0.99 0 1.98 0 3 0 C3 115.83 3 231.66 3 351 C-20.76 351 -44.52 351 -69 351 C-69 246.06 -69 141.12 -69 33 C-59.595 32.01 -59.595 32.01 -50 31 C-42.03003507 29.42352342 -35.51527979 26.47608693 -28.3918457 22.69287109 C-23.291445 20 -23.291445 20 -20 20 C-20 19.34 -20 18.68 -20 18 C-18.13671875 16.59765625 -18.13671875 16.59765625 -15.6875 15.0625 C-13.34850473 13.58979927 -11.27481849 12.27868011 -9.33203125 10.30859375 C-8 9 -8 9 -6 9 C-5.7525 8.443125 -5.505 7.88625 -5.25 7.3125 C-3.76129471 4.55839521 -2.11590028 2.30825486 0 0 Z " transform="translate(284,334)" style="fill: #E498A7;"/><path d="M0 0 C5.75 0.875 5.75 0.875 8 2 C10.49656943 2.0915866 12.96475456 2.12178445 15.46132088 2.10743046 C16.63482537 2.10662866 16.63482537 2.10662866 17.83203703 2.10581067 C20.48132796 2.10275698 23.13054323 2.09247605 25.77981567 2.08229065 C27.68719877 2.07859964 29.59458276 2.07534967 31.50196731 2.07250541 C36.76499315 2.06336967 42.02798501 2.04793588 47.2909925 2.03152263 C52.95835079 2.0149347 58.62572034 2.00411798 64.29309082 1.99261475 C74.11939593 1.97187334 83.94568639 1.94744246 93.77197647 1.92053413 C107.97929543 1.88163408 122.18662309 1.84825409 136.39395903 1.81623887 C159.44217459 1.76415067 182.49037645 1.70758168 205.53857422 1.64819336 C227.93310018 1.59049999 250.32762975 1.53491083 272.72216797 1.48217773 C273.41215875 1.48055215 274.10214953 1.47892657 274.81304912 1.47725173 C281.74206055 1.46092967 288.67107208 1.44465047 295.60008369 1.42840267 C353.73340555 1.29208217 411.86670809 1.14852572 470 1 C474 7.625 474 7.625 474 11 C474.66 11 475.32 11 476 11 C479 14.46153846 479 14.46153846 479 17 C479.66 17 480.32 17 481 17 C482.2890625 18.75 482.2890625 18.75 483.625 21 C484.07101562 21.7425 484.51703125 22.485 484.9765625 23.25 C485.31429688 23.8275 485.65203125 24.405 486 25 C428.46070466 25.068654 370.92141306 25.12152871 313.38208485 25.15319599 C306.59033514 25.15693796 299.79858552 25.16082762 293.00683594 25.16479492 C292.33097979 25.1651872 291.65512364 25.16557948 290.958787 25.16598364 C269.05735269 25.17876478 247.15594162 25.20129654 225.25452138 25.22889166 C202.10728739 25.25800346 178.96006724 25.27599019 155.81281364 25.28226548 C141.94748999 25.28638353 128.08223307 25.2993941 114.21692996 25.3237494 C104.71131199 25.33959694 95.20572857 25.34440257 85.70009835 25.34050413 C80.2143919 25.33858107 74.72880213 25.3415466 69.24311638 25.35761642 C64.21924971 25.37222592 59.19557806 25.37294543 54.17170237 25.36269668 C52.35592016 25.36143018 50.54012572 25.36522675 48.72436751 25.37464955 C31.74817162 25.45761174 19.66934037 22.3718222 7.20703125 10.29296875 C1.28893272 3.86679817 1.28893272 3.86679817 0 0 Z " transform="translate(223,739)" style="fill: #E3B366;"/><path d="M0 0 C3.25053735 3.10278566 5.19691575 5.85290622 7 10 C7 10.66 7 11.32 7 12 C7.66 12.33 8.32 12.66 9 13 C10.4021562 15.97077068 11.34475084 19.13362031 12.375 22.25 C12.68518066 23.18352295 12.99536133 24.1170459 13.31494141 25.07885742 C17.94067591 39.51042442 21.11984609 55.06573416 21.12863445 70.26193142 C21.13038749 70.94986038 21.13214053 71.63778933 21.13394669 72.34656462 C21.13857769 74.63873271 21.1361487 76.93083656 21.13371277 79.2230072 C21.13558222 80.88834054 21.13788346 82.55367344 21.14057809 84.21900564 C21.14668623 88.78575283 21.14656365 93.35248168 21.14538372 97.91923201 C21.14517945 102.84857249 21.15070102 107.77790712 21.15544128 112.70724487 C21.16374373 122.36264148 21.16649597 132.01803199 21.16705366 141.67343187 C21.16752915 149.52588074 21.16958556 157.3783276 21.17275429 165.23077583 C21.18156089 187.5090944 21.18617382 209.78740816 21.18542381 232.06572848 C21.18538386 233.26647216 21.1853439 234.46721585 21.18530273 235.7043457 C21.18526185 236.9065614 21.18522097 238.10877709 21.18517885 239.34742356 C21.18477271 258.81584962 21.19433432 278.28425632 21.2084411 297.75267678 C21.22282183 317.75762304 21.2297103 337.76255987 21.22884732 357.76751143 C21.22851587 368.9926034 21.23124013 380.21767507 21.24202538 391.44276237 C21.25115287 401.00363312 21.25328731 410.56447438 21.24651595 420.12534761 C21.24326167 424.99829608 21.24315433 429.87118807 21.2518692 434.74413109 C21.25978401 439.21597444 21.25825244 443.68771697 21.24958507 448.15955801 C21.24806093 449.76660982 21.24982462 451.37366934 21.25544515 452.98071205 C21.31864256 472.35288715 20.00643439 493.14438045 12 511 C11.40524299 512.53729567 10.821087 514.07875502 10.25 515.625 C9.63125 517.295625 9.63125 517.295625 9 519 C8.34 519 7.68 519 7 519 C7 519.99 7 520.98 7 522 C25.15 522 43.3 522 62 522 C62 522.33 62 522.66 62 523 C33.29 523 4.58 523 -25 523 C-22.525 520.525 -22.525 520.525 -20 518 C-19.443125 517.236875 -18.88625 516.47375 -18.3125 515.6875 C-17.879375 515.130625 -17.44625 514.57375 -17 514 C-16.34 514 -15.68 514 -15 514 C-14.72800781 513.26265625 -14.45601562 512.5253125 -14.17578125 511.765625 C-13.06268301 509.14744044 -11.78406671 507.09219285 -10.1875 504.75 C-3.79306689 494.35904619 -0.84492099 481.00707779 -0.8613348 468.93527508 C-0.85849258 468.12415161 -0.85565036 467.31302814 -0.85272202 466.47732517 C-0.84437289 463.74819416 -0.84310663 461.01910558 -0.84178162 458.28996277 C-0.83721642 456.31811669 -0.83221646 454.34627159 -0.82681805 452.37442762 C-0.81322276 446.94717578 -0.80581455 441.51993021 -0.79939139 436.09266579 C-0.79139357 430.24333912 -0.77769366 424.39402552 -0.76467896 418.54470825 C-0.74290745 408.40744117 -0.72476541 398.27017276 -0.70907402 388.13289452 C-0.68638155 373.47601009 -0.65824115 358.81913907 -0.62875474 344.16226689 C-0.58098317 320.38365652 -0.53780059 296.60503981 -0.49731445 272.82641602 C-0.4579706 249.72484882 -0.41654953 226.62328688 -0.37231445 203.52172852 C-0.37095192 202.80972148 -0.36958939 202.09771444 -0.36818558 201.36413143 C-0.35450028 194.21390769 -0.34077273 187.06368403 -0.32701423 179.91346043 C-0.29898718 165.34744353 -0.27124214 150.78142609 -0.2436676 136.21540833 C-0.2423994 135.54567656 -0.2411312 134.87594479 -0.23982458 134.18591812 C-0.15515911 89.45728728 -0.07708817 44.72864447 0 0 Z " transform="translate(821,242)" style="fill: #E0D7D6;"/><path d="M0 0 C0.66 0 1.32 0 2 0 C1.60082968 1.44245638 1.17985483 2.87888841 0.75 4.3125 C0.51796875 5.11300781 0.2859375 5.91351562 0.046875 6.73828125 C-1.23991031 9.5183137 -2.39475049 10.41009566 -5 12 C-7.46191254 12.37495883 -7.46191254 12.37495883 -10.28197718 12.37489682 C-11.3607041 12.38215115 -12.43943102 12.38940548 -13.55084664 12.39687964 C-15.33103854 12.38591562 -15.33103854 12.38591562 -17.14719391 12.37473011 C-18.41182604 12.37879084 -19.67645818 12.38285156 -20.9794125 12.38703534 C-24.50764339 12.39793405 -28.03562508 12.39003343 -31.56384706 12.3792013 C-35.39544102 12.37071878 -39.22700026 12.37957584 -43.05859232 12.38626546 C-49.77989393 12.39558122 -56.50112087 12.39368503 -63.22242165 12.38453293 C-73.2170112 12.37096095 -83.21154313 12.37448927 -93.20613681 12.38149153 C-111.05365066 12.39343516 -128.90112926 12.38832044 -146.74864118 12.37621326 C-162.36700162 12.36569 -177.98535003 12.36113611 -193.60371399 12.36250877 C-194.63845958 12.3625928 -195.67320516 12.36267683 -196.73930668 12.36276341 C-200.9393461 12.36311564 -205.13938552 12.36349965 -209.33942493 12.36392899 C-248.76416897 12.36789684 -288.18889173 12.35516298 -327.61362968 12.33440243 C-362.66413739 12.31603207 -397.71462471 12.31021989 -432.76513672 12.31567383 C-435.01561469 12.31602026 -437.26609266 12.31636636 -439.51657063 12.31671212 C-441.18543585 12.31696861 -441.18543585 12.31696861 -442.88801553 12.31723029 C-448.48821244 12.31808379 -454.08840935 12.31890758 -459.68860626 12.31969929 C-460.79336368 12.31985637 -461.89812109 12.32001345 -463.03635601 12.32017529 C-492.29714168 12.32416252 -521.55792537 12.31869357 -550.81870985 12.310188 C-553.96603767 12.30928093 -557.1133655 12.30837528 -560.26069332 12.30747276 C-562.34867646 12.30687165 -564.43665959 12.30626303 -566.52464272 12.30564686 C-581.1002159 12.30142017 -595.67578523 12.30084944 -610.25135882 12.30275235 C-629.03187511 12.30519193 -647.81237071 12.30115102 -666.59288132 12.28554235 C-676.53233747 12.27747269 -686.47175915 12.27490483 -696.41121738 12.2801847 C-703.04154875 12.28315069 -709.67184952 12.27889533 -716.30217357 12.26863613 C-720.08578173 12.26298283 -723.86931936 12.26054515 -727.65292817 12.26680271 C-731.71961699 12.27344771 -735.78612503 12.26478667 -739.85280609 12.25447559 C-741.03960069 12.25887208 -742.22639529 12.26326856 -743.44915336 12.26779827 C-744.52788029 12.26253501 -745.60660721 12.25727175 -746.71802282 12.251849 C-747.64864415 12.25148974 -748.57926548 12.25113048 -749.53808746 12.25076034 C-752.1679307 11.98289527 -753.7907767 11.43751816 -756 10 C-756.75 7.875 -756.75 7.875 -757 6 C-753.78188955 4.10167191 -751.41320249 3.74969519 -747.69763607 3.74864298 C-746.61435267 3.74348365 -745.53106927 3.73832432 -744.4149591 3.73300865 C-742.62711888 3.73976949 -742.62711888 3.73976949 -740.80316067 3.74666691 C-739.53316382 3.74356964 -738.26316696 3.74047236 -736.95468536 3.73728123 C-733.41146651 3.72891482 -729.86835346 3.73305695 -726.32513396 3.73913249 C-722.47725665 3.74353079 -718.62939875 3.73634174 -714.78152567 3.73057598 C-708.03167306 3.72205604 -701.2818504 3.72093397 -694.53199387 3.72458839 C-684.49498508 3.72996954 -674.45800648 3.72389454 -664.42100109 3.71529961 C-647.53794422 3.70110791 -630.65489572 3.69578455 -613.77183342 3.69503975 C-590.72193451 3.69386272 -567.67205955 3.67867762 -544.62216932 3.65954458 C-533.89121557 3.65064432 -523.16026133 3.64237529 -512.42930698 3.63422298 C-511.35498494 3.63340523 -510.2806629 3.63258748 -509.17378565 3.63174495 C-483.59201494 3.61239855 -458.0102418 3.59886284 -432.4284668 3.58666992 C-431.3088586 3.58613313 -430.1892504 3.58559634 -429.03571468 3.58504328 C-402.90525977 3.572544 -376.77480457 3.56176408 -350.64434814 3.55297852 C-341.57661946 3.54990847 -332.50889078 3.54681616 -323.44116211 3.54370117 C-322.32199547 3.54331936 -321.20282883 3.54293754 -320.04974805 3.54254416 C-294.51112826 3.53378585 -268.97251356 3.52264012 -243.43389988 3.50257015 C-242.36132355 3.50172749 -241.28874722 3.50088482 -240.18366858 3.50001662 C-229.47754574 3.49153492 -218.77142344 3.48254029 -208.06530164 3.47282485 C-202.79866213 3.46806298 -197.5320225 3.46344756 -192.26538277 3.45893669 C-190.71052088 3.45760487 -190.71052088 3.45760487 -189.12424765 3.45624614 C-172.41037584 3.44229053 -155.69652026 3.43967696 -138.98264351 3.44161635 C-122.20011708 3.44340749 -105.41762341 3.43480468 -88.63510793 3.41530795 C-78.65321282 3.40406481 -68.67139697 3.40134061 -58.68949932 3.4105043 C-52.03215166 3.41580839 -45.37487017 3.41037879 -38.71753597 3.39602756 C-34.9176544 3.38815546 -31.11793309 3.38516582 -27.31805312 3.39524681 C-23.23556398 3.40597484 -19.15347488 3.39381952 -15.07099819 3.37917423 C-13.27964622 3.38944682 -13.27964622 3.38944682 -11.45210531 3.39992693 C-10.37132543 3.39226408 -9.29054555 3.38460124 -8.17701477 3.37670618 C-7.24249392 3.37637376 -6.30797308 3.37604134 -5.34513342 3.37569884 C-2.55777068 2.92915327 -1.82334922 2.06855616 0 0 Z " transform="translate(888,780)" style="fill: #DBD8DA;"/><path d="M0 0 C8.40132247 6.31974481 12.90464929 16.96204972 14.6875 27.03515625 C15.35971264 37.03431934 13.31636502 46.61932407 6.9609375 54.5703125 C-0.58662275 62.71526651 -7.29082944 67.9319832 -18.60546875 68.9921875 C-28.1014296 69.25869157 -35.75381706 66.5347533 -43.1796875 60.58203125 C-51.62794988 52.37915408 -55.36189156 42.74084245 -56.375 31.19140625 C-56.14670442 20.31623502 -51.34515269 10.61762165 -44.0625 2.75390625 C-30.73907091 -8.79779025 -14.81618688 -8.95144624 0 0 Z " transform="translate(653.0625,316.24609375)" style="fill: #645B67;"/><path d="M0 0 C0.99 0 1.98 0 3 0 C3 115.83 3 231.66 3 351 C-20.43 351 -43.86 351 -68 351 C-68 350.67 -68 350.34 -68 350 C-47.87 350 -27.74 350 -7 350 C-7.33 239.12 -7.66 128.24 -8 14 C-8.99 14 -9.98 14 -11 14 C-10.1875 12.0625 -10.1875 12.0625 -9 10 C-8.01 9.67 -7.02 9.34 -6 9 C-5.29605388 7.68596724 -4.63654342 6.3479743 -4 5 C-2.0625 2.25 -2.0625 2.25 0 0 Z " transform="translate(284,334)" style="fill: #AF929C;"/><path d="M0 0 C0.72167535 -0.00367669 1.44335071 -0.00735338 2.18689501 -0.01114148 C4.6174118 -0.02219935 7.04788587 -0.02602568 9.47842407 -0.02983093 C11.21605058 -0.0360939 12.95367575 -0.04274055 14.69129944 -0.04974365 C19.42063293 -0.0671667 24.1499563 -0.07770857 28.87931395 -0.08594918 C31.83188396 -0.09109566 34.7844508 -0.0971715 37.73701859 -0.10346031 C46.96877038 -0.12251444 56.20051416 -0.13674615 65.43228185 -0.14507228 C76.10059096 -0.15485213 86.768693 -0.18119019 97.43692911 -0.22157317 C105.67560677 -0.25169306 113.91422493 -0.26653715 122.1529566 -0.26985329 C127.07717607 -0.27220815 132.00117436 -0.28122515 136.92533493 -0.30631447 C141.5562994 -0.32952869 146.18689603 -0.33385538 150.81790352 -0.32355309 C152.51909798 -0.32305602 154.22031015 -0.32942659 155.92144966 -0.34310913 C158.2412911 -0.3607265 160.55979779 -0.35377344 162.87963867 -0.34057617 C164.82809976 -0.3441587 164.82809976 -0.3441587 166.81592369 -0.34781361 C170.61149007 0.23010604 171.77072946 1.13609141 174.06680298 4.14717102 C175.03300259 6.8029 175.22889369 9.33014623 175.06680298 12.14717102 C173.9290597 14.57780439 172.94866401 16.26530998 171.06680298 18.14717102 C168.77018776 18.25309384 166.47024804 18.28687169 164.17120361 18.29434204 C163.44151001 18.29801873 162.71181641 18.30169542 161.96001089 18.30548352 C159.4964151 18.3165632 157.03286141 18.32037139 154.56924438 18.32417297 C152.81043868 18.33043433 151.05163432 18.33708083 149.29283142 18.34408569 C144.50152431 18.36152458 139.71022721 18.37205502 134.9188962 18.38029122 C131.9286497 18.38543458 128.93840636 18.39151056 125.94816208 18.39780235 C116.60161265 18.4168613 107.25507117 18.4310917 97.90850604 18.43941432 C87.10207684 18.4491945 76.29585205 18.47553142 65.48949492 18.51591522 C57.14809383 18.54602296 48.8067515 18.56087805 40.4652971 18.56419533 C35.47793868 18.56655171 30.49079845 18.57558803 25.50349808 18.60065651 C20.81345544 18.62384942 16.12377602 18.62820611 11.43369102 18.61789513 C9.70950173 18.61739752 7.98529509 18.62378358 6.2611599 18.63745117 C3.912455 18.65503243 1.56507323 18.64813348 -0.78363037 18.63491821 C-2.09957373 18.63730657 -3.41551708 18.63969492 -4.77133751 18.64215565 C-7.93319702 18.14717102 -7.93319702 18.14717102 -9.85733986 16.2553587 C-11.08284341 13.85393258 -11.30543944 12.33098439 -11.24569702 9.64717102 C-11.24182983 8.89435852 -11.23796265 8.14154602 -11.23397827 7.36592102 C-10.89934026 4.89742245 -10.24360844 3.25864667 -8.93319702 1.14717102 C-5.96996819 -0.3344434 -3.30815012 0.01088977 0 0 Z " transform="translate(431.9331970214844,410.8528289794922)" style="fill: #615761;"/><path d="M0 0 C0.96763671 -0.00785502 0.96763671 -0.00785502 1.95482165 -0.01586872 C4.11427689 -0.03085876 6.27349498 -0.03157363 8.43299866 -0.03224182 C9.98211059 -0.03986388 11.53121874 -0.04829146 13.08032227 -0.0574646 C17.28690584 -0.07940923 21.49341672 -0.08820819 25.70005107 -0.09329104 C28.32801282 -0.096934 30.9559555 -0.10317368 33.58390999 -0.11029243 C42.75138817 -0.13478472 51.91880975 -0.1478388 61.08631897 -0.15138245 C69.63314724 -0.15501979 78.17961686 -0.18492976 86.72633547 -0.22678703 C94.06402569 -0.26146406 101.40159687 -0.27693042 108.7393685 -0.27762848 C113.12205954 -0.27842205 117.50438509 -0.28719713 121.8869915 -0.31562614 C126.0083838 -0.34176344 130.12910639 -0.34403676 134.25054359 -0.3279705 C135.76265292 -0.32615265 137.27480039 -0.33287724 138.78682709 -0.34878922 C140.85257601 -0.36920239 142.91597088 -0.35873126 144.98168945 -0.34057617 C146.13703155 -0.3425875 147.29237364 -0.34459883 148.4827261 -0.3466711 C152.50957908 0.46722575 153.99486511 2.13235192 156.55433655 5.27415466 C157.87195831 9.06231724 157.69308215 11.44737723 156.24183655 15.08665466 C154.55433655 18.27415466 154.55433655 18.27415466 152.55433655 19.27415466 C150.44768322 19.37700096 148.33770988 19.4136887 146.2285614 19.42132568 C145.57222288 19.42500237 144.91588437 19.42867906 144.23965681 19.43246716 C142.03025187 19.44352077 139.82089393 19.44735063 137.61146545 19.45115662 C136.03147227 19.45741992 134.45148056 19.4640666 132.87149048 19.47106934 C128.57189581 19.48848942 124.27231228 19.49903347 119.97269106 19.50727487 C117.28813641 19.51242204 114.60358525 19.51849784 111.91903305 19.524786 C103.52449312 19.54383941 95.12996201 19.5580712 86.73540461 19.56639796 C77.03605487 19.57617719 67.33693292 19.60251386 57.63766348 19.64289886 C50.14632553 19.67302359 42.65505301 19.6878633 35.16365564 19.69117898 C30.68655766 19.69353331 26.209703 19.70254334 21.73266983 19.72764015 C17.5219318 19.75086289 13.3115983 19.75517771 9.10081291 19.74487877 C7.55442271 19.74438191 6.00801298 19.75074658 4.46168327 19.76443481 C2.35199321 19.78206682 0.24376876 19.77509269 -1.86592102 19.76190186 C-3.63739785 19.76548439 -3.63739785 19.76548439 -5.44466209 19.76913929 C-9.06415567 19.17214067 -10.23963157 18.14927953 -12.44566345 15.27415466 C-12.90660095 13.05540466 -12.90660095 13.05540466 -12.82066345 10.77415466 C-12.80777283 10.02134216 -12.7948822 9.26852966 -12.78160095 8.49290466 C-12.40188838 5.9850356 -11.85216142 4.3883809 -10.44566345 2.27415466 C-7.0106621 0.02062376 -4.0461645 0.01629202 0 0 Z " transform="translate(433.44566345214844,513.7258453369141)" style="fill: #615862;"/><path d="M0 0 C0.89002716 -0.0071553 1.78005432 -0.01431061 2.697052 -0.02168274 C5.63319541 -0.03856385 8.56781069 -0.01917062 11.50390625 0.00219727 C13.54744595 0.00136851 15.59098558 -0.0010911 17.63452148 -0.00511169 C21.91508068 -0.0079693 26.19511653 0.00672814 30.47558594 0.03417969 C35.96031389 0.06826212 41.44410604 0.06224375 46.92887878 0.04351711 C51.14798775 0.0329446 55.36687926 0.0418873 59.58596802 0.05690193 C61.6081579 0.06208233 63.6303705 0.06160367 65.65255737 0.05535698 C68.47980518 0.04990182 71.30571695 0.07028962 74.1328125 0.09765625 C74.96724884 0.09113037 75.80168518 0.08460449 76.66140747 0.07788086 C81.72579277 0.16116561 84.38312422 0.83403621 88.06640625 4.63110352 C89.69693604 6.9831896 90.10916244 8.06166877 89.89453125 10.92016602 C89.60835937 12.07645508 89.60835937 12.07645508 89.31640625 13.25610352 C89.04570313 14.42012695 89.04570313 14.42012695 88.76953125 15.60766602 C88.06640625 17.63110352 88.06640625 17.63110352 86.06640625 19.63110352 C83.00916744 19.84058907 80.04181318 19.92472847 76.98266602 19.92163086 C75.57031174 19.9317067 75.57031174 19.9317067 74.12942505 19.94198608 C71.00550107 19.96104128 67.88179104 19.96489399 64.7578125 19.96704102 C62.59309296 19.97346343 60.4283743 19.98019136 58.26365662 19.98721313 C53.72156765 19.99920454 49.17955486 20.00289202 44.63745117 20.00170898 C38.80838829 20.00150563 32.97981205 20.0288172 27.1508646 20.0632534 C22.67882531 20.0854562 18.20690438 20.08954857 13.7348156 20.08848953 C11.58535013 20.09085513 9.43588186 20.09973216 7.28647041 20.11515427 C4.28381072 20.13468154 1.28221672 20.12902856 -1.72045898 20.11694336 C-3.06009956 20.13380188 -3.06009956 20.13380188 -4.42680359 20.15100098 C-10.43482495 20.08934115 -10.43482495 20.08934115 -12.9801178 17.75088501 C-14.09877354 15.26387342 -14.39998257 13.42031057 -14.43359375 10.69360352 C-14.46453125 9.85958008 -14.49546875 9.02555664 -14.52734375 8.16625977 C-12.70828286 0.39934846 -6.71329147 -0.09406727 0 0 Z " transform="translate(434.93359375,564.368896484375)" style="fill: #665C66;"/><path d="M0 0 C0.932108 -0.00540298 1.864216 -0.01080597 2.8245697 -0.01637268 C5.90542352 -0.02887962 8.98534654 -0.01235688 12.06616211 0.00561523 C14.20560251 0.00546031 16.3450432 0.00397235 18.48448181 0.00120544 C22.96764537 -0.00017939 27.45048933 0.01239489 31.93359375 0.03515625 C37.68633396 0.06355806 43.43854371 0.06079993 49.19132328 0.04806614 C53.60848032 0.0411191 58.02551424 0.04888682 62.44265556 0.06132317 C64.56418829 0.06584594 66.6857342 0.06616728 68.80726814 0.06225777 C71.7689243 0.0593547 74.72984314 0.07580875 77.69140625 0.09765625 C79.01230759 0.09090378 79.01230759 0.09090378 80.3598938 0.08401489 C86.3596603 0.15773444 86.3596603 0.15773444 88.49108028 1.89776516 C90.10073556 3.89927337 90.36645344 5.27404461 90.65600586 7.81420898 C90.75655273 8.5528418 90.85709961 9.29147461 90.96069336 10.05249023 C90.72018499 13.33072392 89.29092896 15.6143339 87.78100586 18.50170898 C75.05526739 18.59427851 62.32960865 18.66540774 49.60360241 18.70895767 C43.69476134 18.72985662 37.78615015 18.75821667 31.87744141 18.8034668 C26.17809596 18.84684178 20.47897199 18.8708287 14.77947426 18.88121796 C12.60207951 18.88862432 10.42469725 18.90308671 8.24739647 18.92462921 C5.20388712 18.95355185 2.16129983 18.95766961 -0.88232422 18.95581055 C-2.24070404 18.9773822 -2.24070404 18.9773822 -3.62652588 18.99938965 C-9.71775826 18.95897315 -9.71775826 18.95897315 -12.2754364 16.62567139 C-13.39206965 14.11211347 -13.65230316 12.25099209 -13.65649414 9.50170898 C-13.67583008 8.65608398 -13.69516602 7.81045898 -13.71508789 6.93920898 C-12.20566394 -0.47717327 -6.21303954 -0.06836907 0 0 Z " transform="translate(434.218994140625,461.498291015625)" style="fill: #645964;"/><path d="M0 0 C0.99 0.495 0.99 0.495 2 1 C2 5.62 2 10.24 2 15 C1.505 13.02 1.505 13.02 1 11 C-1.31622682 13.16679283 -2.99291779 15.38709944 -4.6875 18.0625 C-9.39022844 25.22187763 -14.25046318 31.68872065 -21 37 C-21.81082031 37.82757813 -22.62164063 38.65515625 -23.45703125 39.5078125 C-34.95494058 50.77611688 -55.03072333 59.05160507 -71.09765625 59.01171875 C-79.39584304 58.81743007 -79.39584304 58.81743007 -86.80078125 61.95703125 C-88.79741252 64.21647322 -90.44078246 66.42390146 -92 69 C-92.66 69.99 -93.32 70.98 -94 72 C-94.66 72 -95.32 72 -96 72 C-96.4561633 62.57262522 -94.31832797 55.35844433 -90 47 C-88.43765625 46.96132813 -88.43765625 46.96132813 -86.84375 46.921875 C-60.49231458 45.99459723 -35.82865097 36.53653168 -16 19 C-15.39027344 18.46117187 -14.78054688 17.92234375 -14.15234375 17.3671875 C-8.68333155 12.20962246 -4.39348825 6.06719806 0 0 Z " transform="translate(802,266)" style="fill: #55999A;"/><path d="M0 0 C0.66 2.97 1.32 5.94 2 9 C56.45 9 110.9 9 167 9 C167.33 8.01 167.66 7.02 168 6 C168.99 6.495 168.99 6.495 170 7 C169.566875 7.70125 169.13375 8.4025 168.6875 9.125 C166.98482087 12.02586074 165.49040353 14.98579455 164 18 C127.03878839 18.17997444 90.08421539 17.85845111 53.125 17.5 C51.89173855 17.48804218 50.6584771 17.47608437 49.38784409 17.46376419 C33.92518596 17.31344037 18.46257427 17.15870696 3 17 C2.72285156 16.28972656 2.44570313 15.57945312 2.16015625 14.84765625 C1.79792969 13.92855469 1.43570312 13.00945313 1.0625 12.0625 C0.70285156 11.14597656 0.34320313 10.22945312 -0.02734375 9.28515625 C-0.7996218 7.07581467 -0.7996218 7.07581467 -2 6 C-2.125 3.5 -2.125 3.5 -2 1 C-1 0 -1 0 0 0 Z " transform="translate(421,523)" style="fill: #CFCBCD;"/><path d="M0 0 C0.04898437 0.61488281 0.09796875 1.22976563 0.1484375 1.86328125 C0.22320312 2.67152344 0.29796875 3.47976563 0.375 4.3125 C0.44460938 5.11300781 0.51421875 5.91351563 0.5859375 6.73828125 C0.89564426 9.27224441 0.89564426 9.27224441 3 12 C5.4415753 12.29480735 7.63027634 12.3915097 10.07400513 12.36076355 C11.17912754 12.36460846 11.17912754 12.36460846 12.30657566 12.36853105 C14.78809889 12.37349289 17.26902063 12.35693709 19.75048828 12.34057617 C21.5241596 12.33973042 23.29783198 12.34020403 25.07150269 12.34190369 C29.89776792 12.34276708 34.72381105 12.32508587 39.55002451 12.30418181 C44.58956188 12.28547212 49.62910391 12.28366909 54.66867065 12.28010559 C64.21679813 12.2707683 73.76482298 12.24613179 83.31290519 12.21605712 C94.18092866 12.18256542 105.04895693 12.16604028 115.91701913 12.15097082 C138.27806972 12.11958367 160.63902912 12.06679053 183 12 C182.39816251 14.02045442 181.72693904 16.02111039 181 18 C178.06763393 19.46618303 175.45625126 19.1552366 172.18069458 19.18513489 C171.47126988 19.19289513 170.76184519 19.20065537 170.03092277 19.20865077 C167.64189237 19.23347287 165.25286291 19.25114711 162.86376953 19.26879883 C161.15569716 19.28491923 159.44762832 19.30141785 157.73956299 19.31826782 C152.1206975 19.37173347 146.50177024 19.41459277 140.8828125 19.45703125 C138.95065129 19.47222621 137.01849059 19.48748709 135.08633041 19.50281334 C126.01158564 19.57417271 116.93682103 19.64070963 107.86199868 19.70140249 C97.37527821 19.77170372 86.88886522 19.85861142 76.40239632 19.95958501 C68.30392604 20.0364903 60.20542845 20.09803283 52.10674751 20.14799136 C47.26630544 20.17822772 42.4261299 20.21516927 37.58588028 20.26828957 C33.03380841 20.31786658 28.48200547 20.34844734 23.92969513 20.36432266 C22.25748567 20.37346074 20.58529779 20.38950531 18.91322708 20.41290474 C16.63289144 20.44376906 14.35378645 20.44991043 12.07327271 20.44978333 C10.79642168 20.45954602 9.51957066 20.46930872 8.20402718 20.47936726 C4.43368538 19.91527142 3.27650872 18.99469549 1 16 C0.375 13.9375 0.375 13.9375 0 12 C-0.66 11.01 -1.32 10.02 -2 9 C-2.31254378 6.27716095 -2.13333428 3.75557514 -2 1 C-1 0 -1 0 0 0 Z " transform="translate(421,416)" style="fill: #B9B5BA;"/><path d="M0 0 C0.87173859 -0.0033284 1.74347717 -0.0066568 2.64163208 -0.01008606 C4.48585482 -0.01514824 6.33008672 -0.0174946 8.17431641 -0.01733398 C10.99006325 -0.01951749 13.80541638 -0.03767237 16.62109375 -0.05664062 C18.41406116 -0.05957532 20.20703043 -0.06155961 22 -0.0625 C22.83973358 -0.06968552 23.67946716 -0.07687103 24.54464722 -0.08427429 C29.73254492 -0.06408985 33.91003129 0.17513042 37.9453125 3.79296875 C40.10689755 8.11613885 39.64873596 12.62019837 38.1328125 17.16796875 C34.92123666 19.30901931 34.04168841 19.42549716 30.34179688 19.45849609 C28.88513611 19.47763565 28.88513611 19.47763565 27.39904785 19.49716187 C26.35212769 19.49938751 25.30520752 19.50161316 24.2265625 19.50390625 C23.15031616 19.51056305 22.07406982 19.51721985 20.96520996 19.52407837 C18.68890087 19.53420694 16.41256207 19.53889533 14.13623047 19.53857422 C10.64631546 19.54295181 7.15766028 19.57928282 3.66796875 19.6171875 C1.45833767 19.62305459 -0.75129943 19.6270247 -2.9609375 19.62890625 C-4.53131775 19.6504628 -4.53131775 19.6504628 -6.13342285 19.67245483 C-7.10453003 19.66630157 -8.07563721 19.66014832 -9.07617188 19.65380859 C-10.35832581 19.65808365 -10.35832581 19.65808365 -11.66638184 19.66244507 C-13.8671875 19.16796875 -13.8671875 19.16796875 -15.6373291 17.27407837 C-17.73416048 13.68329366 -17.64858994 10.18968222 -16.8671875 6.16796875 C-12.05056264 -0.08062566 -7.40082103 0.00976059 0 0 Z " transform="translate(602.8671875,460.83203125)" style="fill: #645965;"/><path d="M0 0 C5.1558702 2.05666146 8.16284987 5.81444213 10.33984375 10.828125 C11.9912919 16.26129171 11.69161549 21.07168302 9.375 26.25 C6.90044162 30.67769195 3.56394501 33.71802749 -1 36 C-5.84247335 36.53127855 -9.83970984 36.52541441 -14.3125 34.5 C-19.62942453 29.5540237 -22.28841853 25.40479236 -22.625 18 C-22.28891631 10.60615874 -19.61848833 6.49379841 -14.375 1.5 C-9.50515327 -0.66437632 -5.24161172 -0.86090425 0 0 Z " transform="translate(638,330)" style="fill: #EFCE83;"/><path d="M0 0 C0.33 0 0.66 0 1 0 C1.13277344 0.71027344 1.26554687 1.42054688 1.40234375 2.15234375 C1.57894531 3.07144531 1.75554687 3.99054688 1.9375 4.9375 C2.11152344 5.85402344 2.28554688 6.77054687 2.46484375 7.71484375 C2.77714988 9.95289844 2.77714988 9.95289844 4 11 C7.04329187 11.12536856 10.06497373 11.18612443 13.10961914 11.20532227 C14.06561508 11.21522186 15.02161102 11.22512146 16.00657654 11.23532104 C19.18274414 11.26703852 22.35892673 11.29173381 25.53515625 11.31640625 C27.73091533 11.33696694 29.92667036 11.35796316 32.12242126 11.37937927 C37.91416158 11.43469139 43.70593814 11.48406022 49.4977417 11.53222656 C55.40282434 11.58237503 61.30785404 11.63809575 67.21289062 11.69335938 C78.80854858 11.80105267 90.4042524 11.90247267 102 12 C102.33 11.01 102.66 10.02 103 9 C103.99 9.495 103.99 9.495 105 10 C104.57576756 11.46224799 104.13509755 12.91973412 103.6875 14.375 C103.44386719 15.18710937 103.20023438 15.99921875 102.94921875 16.8359375 C102 19 102 19 99 21 C95.99606023 21.21066929 93.08356024 21.30408299 90.078125 21.30639648 C89.16567017 21.31472 88.25321533 21.32304352 87.31311035 21.33161926 C84.29203041 21.35574757 81.27116612 21.36449379 78.25 21.37109375 C76.15397068 21.38005618 74.05794203 21.38917795 71.96191406 21.39845276 C67.56704145 21.4149518 63.17224513 21.42264485 58.77734375 21.42553711 C53.13765472 21.43092937 47.4986791 21.46864055 41.85919189 21.51428127 C37.53040933 21.54397467 33.20180039 21.55125894 28.8729248 21.55226326 C26.79322025 21.55647904 24.71351581 21.5689673 22.63391113 21.58978081 C19.72935938 21.61654214 16.82648574 21.61191606 13.921875 21.59936523 C13.05840454 21.61419952 12.19493408 21.62903381 11.30529785 21.64431763 C8.90917969 21.61473083 8.90917969 21.61473083 5 21 C3.00390625 18.60072327 3.00390625 18.60072327 2 16 C1.67515625 15.27039063 1.3503125 14.54078125 1.015625 13.7890625 C-0.78892746 8.68843972 -1.23693507 5.28508619 0 0 Z " transform="translate(420,468)" style="fill: #CFCBCC;"/><path d="M0 0 C1.45710076 2.32291425 2.09353244 3.46873572 1.609375 6.21875 C1.32578125 6.9715625 1.0421875 7.724375 0.75 8.5 C0.34007812 9.62921875 0.34007812 9.62921875 -0.078125 10.78125 C-2.53246753 16.68831169 -2.53246753 16.68831169 -6 19 C-8.90847473 19.2001365 -11.72144426 19.28330155 -14.63061523 19.2746582 C-15.51220306 19.27976913 -16.39379089 19.28488007 -17.30209351 19.29014587 C-20.22099567 19.30406436 -23.13966231 19.30308341 -26.05859375 19.30078125 C-28.08496692 19.30466693 -30.11133928 19.30900133 -32.13771057 19.31376648 C-36.38716267 19.32123354 -40.63653169 19.32093388 -44.88598633 19.31567383 C-50.33483323 19.30987848 -55.7833403 19.3268095 -61.232131 19.3500185 C-65.41768893 19.36474171 -69.60316474 19.36562947 -73.78874397 19.36250877 C-75.79781836 19.36302269 -77.80689725 19.36827366 -79.81594658 19.37832069 C-82.62418654 19.39064038 -85.43176113 19.38392029 -88.23999023 19.37231445 C-89.0718132 19.37995819 -89.90363617 19.38760193 -90.76066589 19.39547729 C-94.10654191 19.36487289 -96.56365176 19.23487003 -99.53968811 17.63298035 C-101.54179681 15.3941407 -101.14631233 13.92624662 -101 11 C-101.66 10.01 -102.32 9.02 -103 8 C-102.01 8.33 -101.02 8.66 -100 9 C-98.6591955 9.09381123 -97.3142701 9.13481028 -95.97019958 9.14044189 C-95.15279297 9.14615204 -94.33538635 9.15186218 -93.49320984 9.15774536 C-92.60011612 9.15886322 -91.7070224 9.15998108 -90.78686523 9.16113281 C-89.8435434 9.16609772 -88.90022156 9.17106262 -87.92831421 9.17617798 C-84.80506668 9.19079489 -81.68186987 9.19759934 -78.55859375 9.203125 C-76.39290871 9.20887497 -74.22722369 9.21463272 -72.0615387 9.22039795 C-67.52124799 9.23090531 -62.98097499 9.23675033 -58.44067383 9.24023438 C-52.61051912 9.24573145 -46.78059651 9.26978647 -40.95051479 9.29820633 C-36.47853397 9.31678398 -32.00660974 9.32203561 -27.53459358 9.32357025 C-25.3843057 9.32660622 -23.23401903 9.33466624 -21.08376884 9.34775543 C-18.08357647 9.36472102 -15.08396047 9.36295951 -12.08374023 9.35644531 C-11.18862228 9.3656601 -10.29350433 9.37487488 -9.3712616 9.3843689 C-6.65909058 9.40159478 -6.65909058 9.40159478 -3 9 C-0.87491756 5.81237635 -0.4979837 3.73487777 0 0 Z " transform="translate(524,574)" style="fill: #CFCCCC;"/><path d="M0 0 C0.33 0 0.66 0 1 0 C0.78799224 1.80206593 0.56997114 3.60351815 0.33203125 5.40234375 C0.09378836 7.26624399 -0.11356661 9.13419117 -0.30078125 11.00390625 C-1.52652019 21.29268462 -4.73063543 31.21488035 -13 38 C-13.721875 38.70125 -14.44375 39.4025 -15.1875 40.125 C-22.96547868 45.31031912 -31.72730607 45.90625323 -40.7578125 44.6015625 C-49.12132261 42.80771771 -54.81802877 38.66638364 -59.6328125 31.60546875 C-62.79370635 25.87070418 -63.84764054 20.50990422 -64 14 C-59 19 -59 19 -56.625 21.5625 C-49.75273747 27.94388664 -42.15961171 30.46034722 -32.87109375 30.24609375 C-22.74263103 29.3779398 -15.52014059 25.03830395 -8.75 17.625 C-4.47759422 12.36576137 -1.93850056 6.46166853 0 0 Z " transform="translate(667,354)" style="fill: #C5C0C3;"/><path d="M0 0 C155.76 0 311.52 0 472 0 C472 1.65 472 3.3 472 5 C471.66239393 4.51261358 471.32478786 4.02522717 470.9769513 3.52307147 C468.00332687 1.23214881 464.97097254 1.59239626 461.36877918 1.63085651 C460.58022389 1.62739498 459.79166859 1.62393345 458.97921768 1.62036702 C456.31463721 1.61237321 453.65059144 1.62592863 450.98603821 1.63923645 C449.06541557 1.63792924 447.14479345 1.63530438 445.2241742 1.63146895 C439.9291525 1.62473546 434.63431156 1.63679592 429.33931291 1.65180314 C423.63583579 1.66471809 417.93236946 1.66037726 412.22888184 1.65809631 C402.34146508 1.6565207 392.45410756 1.66596 382.5667057 1.68280983 C368.27106349 1.70715625 353.97545002 1.71500063 339.67978933 1.7187738 C316.48792519 1.72534514 293.29609474 1.74529908 270.10424805 1.77368164 C247.57104659 1.80122635 225.03785358 1.82248139 202.50463867 1.83520508 C201.81029725 1.83559966 201.11595583 1.83599424 200.40057376 1.83640077 C193.42783172 1.84035627 186.45508961 1.84418372 179.48234745 1.84791735 C120.98821063 1.87925067 62.49410566 1.93219871 4 2 C2.37572896 6.50092614 1.84158837 9.1672359 2.875 13.875 C3.07867187 14.84179688 3.28234375 15.80859375 3.4921875 16.8046875 C3.74355469 17.89136719 3.74355469 17.89136719 4 19 C4.33 19 4.66 19 5 19 C5.06058594 19.61488281 5.12117187 20.22976563 5.18359375 20.86328125 C5.26738281 21.67152344 5.35117188 22.47976563 5.4375 23.3125 C5.51871094 24.11300781 5.59992188 24.91351562 5.68359375 25.73828125 C5.95265693 28.16087179 5.95265693 28.16087179 7 31 C6.34 31 5.68 31 5 31 C4.35089846 29.41800369 3.70585306 27.83434276 3.0625 26.25 C2.70285156 25.36828125 2.34320313 24.4865625 1.97265625 23.578125 C-1.1968474 15.17703098 0 10.62106342 0 0 Z " transform="translate(215,704)" style="fill: #EFCA8C;"/><path d="M0 0 C0.99 0.33 1.98 0.66 3 1 C4.60023004 1.09204976 6.20401012 1.12790787 7.80688477 1.12939453 C9.26838707 1.13412277 9.26838707 1.13412277 10.75941467 1.13894653 C11.80947189 1.1369223 12.85952911 1.13489807 13.94140625 1.1328125 C15.55933327 1.13424759 15.55933327 1.13424759 17.20994568 1.13571167 C19.49046894 1.13639236 21.77099413 1.13454581 24.05151367 1.13037109 C27.55196457 1.12501612 31.05228745 1.13032254 34.55273438 1.13671875 C36.76562528 1.13605805 38.97851611 1.13477706 41.19140625 1.1328125 C42.76952843 1.13584885 42.76952843 1.13584885 44.37953186 1.13894653 C45.35071457 1.13579437 46.32189728 1.13264221 47.32250977 1.12939453 C48.60799461 1.12820114 48.60799461 1.12820114 49.91944885 1.12698364 C52.06125841 1.13266004 52.06125841 1.13266004 54 0 C53.54591344 4.88143051 52.62863691 7.63629662 49 11 C46.02146527 11.71460479 43.12005146 11.62989193 40.0703125 11.55859375 C39.20236053 11.55626236 38.33440857 11.55393097 37.44015503 11.55152893 C35.60599938 11.54179656 33.77187358 11.52002096 31.93798828 11.48706055 C29.14179568 11.43779591 26.34736804 11.42558697 23.55078125 11.41992188 C21.76560643 11.40582886 19.9804468 11.38962195 18.1953125 11.37109375 C17.36387726 11.36573105 16.53244202 11.36036835 15.67581177 11.35484314 C11.10032291 11.26195006 7.26570307 10.85456321 3 9 C1.0111742 6.25352627 0.55209872 3.31259231 0 0 Z " transform="translate(586,478)" style="fill: #CECBCB;"/><path d="M0 0 C3.15456488 1.81219684 4.56405306 3.21114363 6.3125 6.375 C7.56061472 11.14052893 7.62805569 13.87383119 5.1875 18.25 C2.91736822 21.10387996 1.38304785 22.7984032 -2.3046875 23.3359375 C-9.27820069 23.44191794 -9.27820069 23.44191794 -13.0625 21.125 C-16.31386519 17.55898657 -16.27884128 14.98880472 -16.21875 10.32421875 C-15.90542425 6.99513265 -14.8754099 4.74613592 -13 2 C-8.83388044 -0.58494838 -4.77057784 -0.69003001 0 0 Z " transform="translate(245,256)" style="fill: #655D68;"/><path d="M0 0 C3.059081 1.99776719 4.44090449 3.40924015 5.65625 6.8671875 C6.44196725 10.7504439 6.13668886 13.37843377 4.25 16.875 C2.07517442 19.89559108 0.66949897 21.70299176 -3.0859375 22.37109375 C-7.5852541 22.50162 -9.37507224 22.5077538 -13 19.5625 C-13.66 18.716875 -14.32 17.87125 -15 17 C-15.33 16.67 -15.66 16.34 -16 16 C-16.16796875 14.07421875 -16.16796875 14.07421875 -16.1875 11.6875 C-16.20167969 10.90761719 -16.21585937 10.12773438 -16.23046875 9.32421875 C-15.87381803 5.7274869 -14.80214821 3.75902196 -12.18359375 1.28125 C-8.30453864 -0.99483242 -4.34540371 -0.73126535 0 0 Z " transform="translate(377,559)" style="fill: #645D68;"/><path d="M0 0 C2.25092058 2.25092058 3.5890608 4.1781216 5 7 C4.9140625 9.09375 4.9140625 9.09375 4.625 11.5 C4.53476562 12.2940625 4.44453125 13.088125 4.3515625 13.90625 C4 16 4 16 3 18 C2.34 18 1.68 18 1 18 C1 18.66 1 19.32 1 20 C-2.98710695 21.99355348 -7.67537835 21.6480701 -12 21 C-14.86030195 19.29599033 -15.36790293 18.0953565 -17 15 C-17.55286565 10.49809397 -17.21354551 6.98438191 -15 3 C-10.46179695 -1.09902211 -5.83393796 -1.75253378 0 0 Z " transform="translate(378,512)" style="fill: #645D68;"/><path d="M0 0 C3.059081 1.99776719 4.44090449 3.40924015 5.65625 6.8671875 C6.44514338 10.76614131 6.12278265 13.41609016 4.25 16.9375 C2 20 2 20 -1 21 C-9.81592554 21.56876939 -9.81592554 21.56876939 -14 18 C-16.07542068 14.34330642 -16.50909933 11.15764454 -16 7 C-11.87864081 -0.28106791 -8.06206318 -1.0901532 0 0 Z " transform="translate(377,405)" style="fill: #675D68;"/><path d="M0 0 C3.07933335 2.01099321 4.49196824 3.41519652 5.62109375 6.9375 C6.25779931 10.40327873 6.15055572 12.67021128 4.6875 15.875 C1.46897575 19.92795646 1.46897575 19.92795646 -1.64453125 20.40625 C-9.87386624 20.64978149 -9.87386624 20.64978149 -12.90234375 18.90234375 C-15.33514743 16.25799193 -16.00777968 13.94456978 -16.5 10.4375 C-15.97300076 6.81438025 -15.22264703 4.88120911 -13 2 C-8.74959762 -0.83360159 -4.98781061 -0.75572888 0 0 Z " transform="translate(377,460)" style="fill: #665E69;"/><path d="M0 0 C2.69270239 2.69270239 3.01889319 5.21676539 4.0625 8.875 C7.29707975 19.31781995 13.31725342 27.32096417 22 34 C22 34.66 22 35.32 22 36 C22.66 36.33 23.32 36.66 24 37 C-3.39 37 -30.78 37 -59 37 C-59 36.67 -59 36.34 -59 36 C-36.89 36 -14.78 36 8 36 C7.01 33.69 6.02 31.38 5 29 C2.78518586 23.11351621 1.22336207 17.16341461 0 11 C-0.3403125 9.39125 -0.3403125 9.39125 -0.6875 7.75 C-1.01181729 4.89600782 -0.73139949 2.76306472 0 0 Z " transform="translate(197,728)" style="fill: #D8D5D8;"/><path d="M0 0 C0.5625 1.9375 0.5625 1.9375 1 4 C0 5 0 5 -2.02215916 5.1241985 C-2.92095718 5.12381878 -3.8197552 5.12343906 -4.74578953 5.12304783 C-5.77886567 5.12503888 -6.81194181 5.12702993 -7.87632328 5.12908131 C-9.02513114 5.12616847 -10.17393899 5.12325563 -11.3575592 5.12025452 C-12.56714513 5.12110894 -13.77673105 5.12196337 -15.02297109 5.12284368 C-18.39559899 5.1242119 -21.76816958 5.12106431 -25.14079058 5.11606562 C-28.77202712 5.11176452 -32.40326175 5.1132073 -36.03450012 5.1139679 C-42.33091213 5.11449335 -48.62731381 5.11134434 -54.92372322 5.10573006 C-64.02737842 5.09761792 -73.1310286 5.09500013 -82.23468702 5.09374207 C-97.00322192 5.09155109 -111.7717513 5.08488979 -126.5402832 5.07543945 C-140.89021782 5.0662665 -155.24015094 5.0591851 -169.59008789 5.05493164 C-170.91591984 5.05453756 -170.91591984 5.05453756 -172.26853628 5.05413551 C-176.70255072 5.05283051 -181.13656518 5.05156679 -185.57057965 5.05032361 C-222.38039032 5.03994959 -259.19019473 5.02233005 -296 5 C-296.33 3.68 -296.66 2.36 -297 1 C-296.34 1.66 -295.68 2.32 -295 3 C-292.78631688 3.30430229 -292.78631688 3.30430229 -290.18360138 3.25447559 C-288.64852597 3.26322388 -288.64852597 3.26322388 -287.08243895 3.27214891 C-285.38315205 3.26647992 -285.38315205 3.26647992 -283.64953613 3.26069641 C-281.85436829 3.26643473 -281.85436829 3.26643473 -280.02293444 3.27228898 C-276.69057809 3.28085156 -273.35844121 3.28037428 -270.02609086 3.27610838 C-266.43640354 3.27365042 -262.8467426 3.28264366 -259.25706482 3.29014587 C-252.22076767 3.30292053 -245.18450862 3.30468316 -238.14820182 3.30234561 C-232.4317284 3.30056551 -226.71526659 3.30230546 -220.99879456 3.30657005 C-220.18646214 3.30716524 -219.37412972 3.30776043 -218.53718117 3.30837366 C-216.8871547 3.30958535 -215.23712823 3.31079949 -213.58710176 3.31201603 C-198.09992518 3.32290206 -182.61277035 3.32072395 -167.12559253 3.31463119 C-152.94271762 3.30946008 -138.75991136 3.32072067 -124.57705003 3.33972941 C-110.02919089 3.35907854 -95.48136428 3.36736902 -80.93349218 3.36360615 C-72.75988348 3.36168978 -64.58633323 3.364224 -56.41273499 3.37832069 C-49.45520143 3.39019823 -42.4977623 3.39168034 -35.54022753 3.37953053 C-31.98758699 3.37361638 -28.43511947 3.37261172 -24.88249016 3.38453293 C-21.0383943 3.39728276 -17.1945645 3.38698775 -13.35046387 3.3742218 C-11.65117697 3.38528323 -11.65117697 3.38528323 -9.91756105 3.39656812 C-8.89417745 3.38936158 -7.87079385 3.38215503 -6.81639862 3.37473011 C-5.92817775 3.37478513 -5.03995688 3.37484014 -4.12482023 3.37489682 C-3.42362956 3.25118087 -2.72243888 3.12746492 -2 3 C-1.34 2.01 -0.68 1.02 0 0 Z " transform="translate(602,324)" style="fill: #EDE2D1;"/><path d="M0 0 C0.66 0 1.32 0 2 0 C-0.26113902 19.95122667 -0.26113902 19.95122667 -5 29 C-5.66 29 -6.32 29 -7 29 C-6.67 29.66 -6.34 30.32 -6 31 C-3.28553021 31.31241455 -0.66090639 31.51336592 2.0625 31.625 C2.82111328 31.66367187 3.57972656 31.70234375 4.36132812 31.7421875 C6.24047195 31.83673562 8.12020336 31.91946756 10 32 C10 32.33 10 32.66 10 33 C-0.23 33 -10.46 33 -21 33 C-19.35 31.35 -17.7 29.7 -16 28 C-15.1646875 26.8553125 -15.1646875 26.8553125 -14.3125 25.6875 C-13.879375 25.130625 -13.44625 24.57375 -13 24 C-12.34 24 -11.68 24 -11 24 C-10.73058594 23.27296875 -10.46117187 22.5459375 -10.18359375 21.796875 C-9.02520716 19.05956543 -7.6659955 16.74704643 -6.0625 14.25 C-3.24735458 9.66592457 -1.42458023 5.17347557 0 0 Z " transform="translate(817,732)" style="fill: #C2BDC4;"/><path d="M0 0 C0.66 0 1.32 0 2 0 C2.433125 0.969375 2.86625 1.93875 3.3125 2.9375 C4.7014861 6.27731765 4.7014861 6.27731765 8 7 C9.95677555 7.15754704 9.95677555 7.15754704 12 7.125 C13.0209375 7.12886719 13.0209375 7.12886719 14.0625 7.1328125 C16.21874781 7.06631126 16.21874781 7.06631126 19 6 C20.20882096 3.99983534 20.20882096 3.99983534 21 2 C21.66 2 22.32 2 23 2 C22.54554036 3.41791408 22.08625056 4.83428046 21.625 6.25 C21.24214844 7.43335938 21.24214844 7.43335938 20.8515625 8.640625 C18.71005917 14.5739645 18.71005917 14.5739645 15.8125 16.3125 C12.09067318 17.22227989 9.67867193 17.08997687 6 16 C3.84827875 12.77241813 2.89857907 9.72268471 2 6 C1.34 5.01 0.68 4.02 0 3 C0 2.01 0 1.02 0 0 Z " transform="translate(360,418)" style="fill: #D1CED1;"/><path d="M0 0 C0.66 0 1.32 0 2 0 C2.680625 1.2375 2.680625 1.2375 3.375 2.5 C6.60419095 5.57541995 7.71906245 5.33869685 12.0625 5.3125 C14.04255382 5.22683636 16.02205164 5.1251866 18 5 C18.99 5 19.98 5 21 5 C17.884273 12.86350148 17.884273 12.86350148 15 15 C12.73828125 15.07421875 12.73828125 15.07421875 10.3125 14.6875 C9.10013672 14.50767578 9.10013672 14.50767578 7.86328125 14.32421875 C7.24839844 14.21722656 6.63351562 14.11023438 6 14 C5.73445313 13.32453125 5.46890625 12.6490625 5.1953125 11.953125 C4.84210938 11.06109375 4.48890625 10.1690625 4.125 9.25 C3.77695312 8.36828125 3.42890625 7.4865625 3.0703125 6.578125 C2.1353291 4.3259752 1.12219206 2.16350541 0 0 Z " transform="translate(360,474)" style="fill: #D2CFD1;"/><path d="M0 0 C0.66 0.33 1.32 0.66 2 1 C1.41748651 4.99848769 0.16686722 7.81303838 -1.9375 11.25 C-2.46214844 12.12140625 -2.98679687 12.9928125 -3.52734375 13.890625 C-5 16 -5 16 -7 17 C-13.47058824 17.35294118 -13.47058824 17.35294118 -17 15 C-17.6875 11.375 -17.6875 11.375 -18 8 C-17.19175781 8.05800781 -16.38351562 8.11601563 -15.55078125 8.17578125 C-8.74015029 8.60652812 -8.74015029 8.60652812 -2.8125 5.6875 C-0.8761525 3.07557873 -0.8761525 3.07557873 0 0 Z " transform="translate(382,572)" style="fill: #CECBCD;"/><path d="M0 0 C0.66 0 1.32 0 2 0 C0.69045524 4.23083691 -0.83854716 8.127397 -3 12 C-6.45334185 13.72667093 -10.23254342 13.62214879 -14 13 C-16.45323053 10.24011565 -17.26247489 7.56470471 -18 4 C-18.33 3.34 -18.66 2.68 -19 2 C-18.47921875 2.32742188 -17.9584375 2.65484375 -17.421875 2.9921875 C-14.25287991 4.31089836 -11.6701381 4.19340276 -8.25 4.125 C-7.07953125 4.10695313 -5.9090625 4.08890625 -4.703125 4.0703125 C-3.81109375 4.04710937 -2.9190625 4.02390625 -2 4 C-2 3.34 -2 2.68 -2 2 C-1.34 2 -0.68 2 0 2 C0 1.34 0 0.68 0 0 Z " transform="translate(381,528)" style="fill: #CFCBCE;"/><path d="M0 0 C0.66 0.33 1.32 0.66 2 1 C2 5.62 2 10.24 2 15 C1.67 13.68 1.34 12.36 1 11 C0.4225 11.495 -0.155 11.99 -0.75 12.5 C-3 14 -3 14 -7 14 C-7.99 14.33 -8.98 14.66 -10 15 C-8.59601721 10.89889238 -6.62912962 8.01910841 -3.875 4.6875 C-3.15054688 3.80449219 -2.42609375 2.92148437 -1.6796875 2.01171875 C-1.12539063 1.34785156 -0.57109375 0.68398438 0 0 Z " transform="translate(802,266)" style="fill: #588B8B;"/><path d="M0 0 C3.63 0 7.26 0 11 0 C11 0.33 11 0.66 11 1 C8.69 1.33 6.38 1.66 4 2 C1.1284202 7.90269182 2.5869048 12.89108077 4 19 C4.33 19 4.66 19 5 19 C5.06058594 19.61488281 5.12117187 20.22976563 5.18359375 20.86328125 C5.26738281 21.67152344 5.35117188 22.47976563 5.4375 23.3125 C5.51871094 24.11300781 5.59992188 24.91351562 5.68359375 25.73828125 C5.95265693 28.16087179 5.95265693 28.16087179 7 31 C6.34 31 5.68 31 5 31 C4.35089846 29.41800369 3.70585306 27.83434276 3.0625 26.25 C2.70285156 25.36828125 2.34320313 24.4865625 1.97265625 23.578125 C0.59663032 19.93082737 -0.12722369 16.79352692 -0.09765625 12.890625 C-0.09443359 12.13652344 -0.09121094 11.38242187 -0.08789062 10.60546875 C-0.07951172 9.82816406 -0.07113281 9.05085937 -0.0625 8.25 C-0.05798828 7.45722656 -0.05347656 6.66445313 -0.04882812 5.84765625 C-0.03708565 3.89840492 -0.01915146 1.94919262 0 0 Z " transform="translate(215,704)" style="fill: #E1C485;"/><path d="M0 0 C0.66 0.33 1.32 0.66 2 1 C-4.76755108 9.62750717 -13.38646571 16.6755272 -24 20 C-25.32 20 -26.64 20 -28 20 C-28 19.34 -28 18.68 -28 18 C-27.19949219 17.77957031 -27.19949219 17.77957031 -26.3828125 17.5546875 C-17.69049197 14.93796817 -10.10250835 10.82045051 -4 4 C-2.66666667 2.66666667 -1.33333333 1.33333333 0 0 Z " transform="translate(791,744)" style="fill: #606E75;"/><path d="M0 0 C0.66 0.33 1.32 0.66 2 1 C-4.32494011 8.03247578 -13.97383496 11.90321387 -23 14 C-23 13.34 -23 12.68 -23 12 C-20.25206182 10.68302963 -17.50182815 9.37129631 -14.75 8.0625 C-13.97269531 7.68931641 -13.19539062 7.31613281 -12.39453125 6.93164062 C-11.64042969 6.57392578 -10.88632813 6.21621094 -10.109375 5.84765625 C-9.41811523 5.51773682 -8.72685547 5.18781738 -8.01464844 4.84790039 C-6.02572001 4.01082472 -4.10419318 3.46416026 -2 3 C-2 2.34 -2 1.68 -2 1 C-1.34 0.67 -0.68 0.34 0 0 Z " transform="translate(266,351)" style="fill: #C28E9C;"/><path d="M0 0 C3.3 0 6.6 0 10 0 C7 3 7 3 2 4 C1.67 10.27 1.34 16.54 1 23 C0.67 23 0.34 23 0 23 C0 15.41 0 7.82 0 0 Z " transform="translate(215,367)" style="fill: #C78F9F;"/><path d="M0 0 C-1.74268207 3.96064107 -4.14674729 7.74436549 -7 11 C-7.66 11 -8.32 11 -9 11 C-9.375 7.75 -9.375 7.75 -9 4 C-5.87944243 1.29551677 -4.16725696 0 0 0 Z " transform="translate(715,327)" style="fill: #5BA1A0;"/><path d="M0 0 C0.721875 0.103125 1.44375 0.20625 2.1875 0.3125 C-3.96284169 7.79541572 -3.96284169 7.79541572 -7.8125 10.3125 C-8.4725 9.9825 -9.1325 9.6525 -9.8125 9.3125 C-7.9542153 4.75125573 -5.1211191 0.56901323 0 0 Z " transform="translate(793.8125,279.6875)" style="fill: #589190;"/><path d="M0 0 C0.66 0.33 1.32 0.66 2 1 C3.66565749 1.15222973 5.33656496 1.24917215 7.0078125 1.31640625 C7.99394531 1.35830078 8.98007812 1.40019531 9.99609375 1.44335938 C11.54490234 1.50233398 11.54490234 1.50233398 13.125 1.5625 C14.68541016 1.62727539 14.68541016 1.62727539 16.27734375 1.69335938 C18.85142528 1.7996288 21.42560508 1.90166583 24 2 C24 2.33 24 2.66 24 3 C23.44014404 3.0093457 22.88028809 3.01869141 22.3034668 3.02832031 C19.76391854 3.08204507 17.22620889 3.16568187 14.6875 3.25 C13.80642578 3.26417969 12.92535156 3.27835937 12.01757812 3.29296875 C6.9371324 3.33032818 6.9371324 3.33032818 2.89453125 6.046875 C2.45173828 7.01367188 2.45173828 7.01367188 2 8 C0.4375 5.6875 0.4375 5.6875 -1 3 C-0.67 2.01 -0.34 1.02 0 0 Z " transform="translate(663,326)" style="fill: #E7DBC5;"/><path d="M0 0 C0.66 0.33 1.32 0.66 2 1 C2 5.62 2 10.24 2 15 C1.67 15 1.34 15 1 15 C0.34 12.69 -0.32 10.38 -1 8 C-2.32 8 -3.64 8 -5 8 C-3.62845496 5.04590299 -2.01136276 2.55991624 0 0 Z " transform="translate(802,266)" style="fill: #557F7C;"/><path d="M0 0 C0.66 0 1.32 0 2 0 C5 3.46153846 5 3.46153846 5 6 C5.66 6 6.32 6 7 6 C8.2890625 7.75 8.2890625 7.75 9.625 10 C10.07101562 10.7425 10.51703125 11.485 10.9765625 12.25 C11.31429687 12.8275 11.65203125 13.405 12 14 C9.03 13.505 9.03 13.505 6 13 C6.66 12.67 7.32 12.34 8 12 C7.071875 11.13375 7.071875 11.13375 6.125 10.25 C4.17007269 8.18007697 3.21660378 6.52010783 2 4 C1.34 3.67 0.68 3.34 0 3 C0 2.01 0 1.02 0 0 Z " transform="translate(697,750)" style="fill: #C1A066;"/><path d="M0 0 C0.66 0 1.32 0 2 0 C2 4.95 2 9.9 2 15 C1.67 15 1.34 15 1 15 C0.34 12.03 -0.32 9.06 -1 6 C-1.66 6.66 -2.32 7.32 -3 8 C-2.45276317 4.62537285 -1.9451 2.91765 0 0 Z " transform="translate(801,277)" style="fill: #81B8B5;"/><path d="M0 0 C0.99 0.33 1.98 0.66 3 1 C2.01 3.31 1.02 5.62 0 8 C-1.65 8 -3.3 8 -5 8 C-3.62845496 5.04590299 -2.01136276 2.55991624 0 0 Z " transform="translate(793,250)" style="fill: #6D6263;"/><path d="M0 0 C0.99 0.33 1.98 0.66 3 1 C2.67 6.28 2.34 11.56 2 17 C1.67 17 1.34 17 1 17 C0.67 13.04 0.34 9.08 0 5 C-0.99 5 -1.98 5 -3 5 C-1.125 1.125 -1.125 1.125 0 0 Z " transform="translate(276,343)" style="fill: #C58E9B;"/><path d="M0 0 C0.66 0 1.32 0 2 0 C1.60404157 1.48484412 1.18249294 2.9628831 0.75 4.4375 C0.51796875 5.26121094 0.2859375 6.08492188 0.046875 6.93359375 C-0.47132813 7.95646484 -0.47132813 7.95646484 -1 9 C-2.32 9.33 -3.64 9.66 -5 10 C-3.35 6.7 -1.7 3.4 0 0 Z " transform="translate(295,290)" style="fill: #69626C;"/><path d="M0 0 C2.03833424 1.2739589 4.03852126 2.61061923 6 4 C6 4.66 6 5.32 6 6 C6.66 6.33 7.32 6.66 8 7 C5.36 7 2.72 7 0 7 C0.66 6.01 1.32 5.02 2 4 C1.34 2.68 0.68 1.36 0 0 Z " transform="translate(213,758)" style="fill: #C4C1C5;"/><path d="M0 0 C0.66 0.66 1.32 1.32 2 2 C1.01 3.485 1.01 3.485 0 5 C-3.3 4.34 -6.6 3.68 -10 3 C-10 2.67 -10 2.34 -10 2 C-9.04287109 1.90912109 -9.04287109 1.90912109 -8.06640625 1.81640625 C-6.82697266 1.69072266 -6.82697266 1.69072266 -5.5625 1.5625 C-4.73878906 1.48128906 -3.91507812 1.40007812 -3.06640625 1.31640625 C-1.01337975 1.21069185 -1.01337975 1.21069185 0 0 Z " transform="translate(379,478)" style="fill: #C4C1C4;"/><path d="M0 0 C0 2.83967231 -0.40267181 5.23735711 -1 8 C-2.32 7.34 -3.64 6.68 -5 6 C-3.63016497 2.83884224 -3.0109362 2.0072908 0 0 Z " transform="translate(613,316)" style="fill: #71666C;"/><path d="M0 0 C0.66 0.33 1.32 0.66 2 1 C2 5.62 2 10.24 2 15 C1.67 15 1.34 15 1 15 C0.93941406 14.32453125 0.87882813 13.6490625 0.81640625 12.953125 C0.73261719 12.06109375 0.64882813 11.1690625 0.5625 10.25 C0.48128906 9.36828125 0.40007813 8.4865625 0.31640625 7.578125 C0.06285099 5.0309789 0.06285099 5.0309789 -0.59765625 2.734375 C-0.73042969 2.16203125 -0.86320313 1.5896875 -1 1 C-0.67 0.67 -0.34 0.34 0 0 Z " transform="translate(802,266)" style="fill: #597277;"/><path d="M0 0 C3.58273331 1.65356922 6.80973467 3.67980703 10 6 C10 6.66 10 7.32 10 8 C6.01328937 6.63312778 3.11505367 4.84804907 0 2 C0 1.34 0 0.68 0 0 Z " transform="translate(609,374)" style="fill: #6F6774;"/><path d="M0 0 C2.64 0 5.28 0 8 0 C7.67 0.66 7.34 1.32 7 2 C4.35139573 2.59355614 1.70802678 2.74209269 -1 3 C-0.67 2.01 -0.34 1.02 0 0 Z " transform="translate(629,310)" style="fill: #726463;"/><path d="M0 0 C1.98 1.65 3.96 3.3 6 5 C5.67 5.66 5.34 6.32 5 7 C3.02 6.01 1.04 5.02 -1 4 C-1 1 -1 1 0 0 Z " transform="translate(607,373)" style="fill: #B9B3BA;"/><path d="M0 0 C0.66 0.66 1.32 1.32 2 2 C1.7578125 3.9453125 1.7578125 3.9453125 1.125 6.125 C0.92132813 6.84945313 0.71765625 7.57390625 0.5078125 8.3203125 C0.34023438 8.87460937 0.17265625 9.42890625 0 10 C-0.33 10 -0.66 10 -1 10 C-1.02689216 8.52093108 -1.04634621 7.04172517 -1.0625 5.5625 C-1.07410156 4.73878906 -1.08570313 3.91507812 -1.09765625 3.06640625 C-1 1 -1 1 0 0 Z " transform="translate(306,315)" style="fill: #E5D3B4;"/><path d="M0 0 C-3.68734758 2.45823172 -6.69699971 3.01242616 -11 4 C-7.65667474 -0.27945633 -5.29105716 -0.4070044 0 0 Z " transform="translate(751,306)" style="fill: #58656D;"/></svg>