<?xml version="1.0" standalone="no"?>
<!DOCTYPE svg PUBLIC "-//W3C//DTD SVG 20010904//EN"
 "http://www.w3.org/TR/2001/REC-SVG-20010904/DTD/svg10.dtd">
<svg version="1.0" xmlns="http://www.w3.org/2000/svg"
 width="1024.000000pt" height="1024.000000pt" viewBox="0 0 1024.000000 1024.000000"
 preserveAspectRatio="xMidYMid meet">
<metadata>
Created by potrace 1.16, written by Peter Selinger 2001-2019
</metadata>
<g transform="translate(0.000000,1024.000000) scale(0.100000,-0.100000)"
fill="#000000" stroke="none">
<path d="M2595 9305 c-189 -41 -327 -137 -436 -303 -26 -40 -57 -98 -69 -129
-53 -142 -50 108 -50 -4022 l0 -3827 36 -42 c22 -27 49 -45 73 -52 25 -7 929
-9 2742 -7 3011 3 2727 -4 2887 72 60 28 93 54 161 123 135 137 199 270 221
460 14 123 14 7354 -1 7442 -25 157 -102 251 -232 286 -75 20 -5240 19 -5332
-1z m465 -585 l0 -430 -427 0 -428 0 3 192 c2 130 8 212 18 251 51 197 165
325 348 389 78 27 88 28 284 28 l202 0 0 -430z m4837 411 c32 -15 48 -32 70
-73 l28 -53 3 -3457 3 -3458 -2116 0 -2116 0 -24 -25 c-37 -36 -34 -86 6 -119
l31 -26 2104 0 2104 0 0 -179 c0 -164 -2 -187 -25 -260 -61 -193 -223 -341
-405 -370 -44 -7 -754 -11 -2197 -11 l-2132 0 -1 4025 -1 4025 2313 0 c2253 0
2314 -1 2355 -19z m-5427 -3977 l0 -2964 -132 0 -133 0 0 2965 0 2966 133 -2
132 -1 0 -2964z m590 -1 l0 -2963 -210 0 -210 0 0 2966 0 2966 210 -3 210 -4
0 -2962z m0 -3598 l0 -455 -428 0 -428 0 -1 455 -1 455 429 0 429 0 0 -455z"/>
<path d="M2700 8804 c-64 -22 -90 -57 -90 -123 0 -100 122 -150 196 -80 75 70
40 183 -61 202 -16 3 -37 3 -45 1z"/>
<path d="M3925 8371 c-40 -24 -60 -49 -74 -90 -12 -38 -15 -2055 -3 -2193 7
-70 11 -81 42 -113 19 -19 51 -40 71 -45 24 -7 589 -9 1601 -8 1556 3 1563 3
1598 24 19 11 45 35 57 54 l23 33 0 801 0 801 -56 65 c-190 220 -615 650 -666
673 -33 16 -134 17 -1300 17 -1212 0 -1264 -1 -1293 -19z m2475 -469 c0 -354
2 -364 69 -409 33 -23 40 -23 312 -23 l279 0 0 -690 0 -690 -528 0 -528 0 -14
66 c-21 108 -72 198 -164 289 -131 131 -286 196 -466 197 -114 0 -172 -14
-289 -68 -79 -37 -106 -57 -176 -126 -93 -95 -135 -168 -160 -283 l-17 -75
-349 0 -349 0 0 1065 0 1065 1190 0 1190 0 0 -318z m551 -204 l51 -58 -216 0
-215 0 -3 231 -3 232 168 -174 c92 -96 190 -200 218 -231z m-1407 -1266 c42
-17 99 -47 127 -68 60 -46 131 -149 152 -221 l15 -52 -478 0 -478 1 24 70 c39
116 118 205 231 262 110 55 277 58 407 8z"/>
<path d="M5245 7879 c-191 -39 -347 -196 -400 -404 -43 -171 16 -369 150 -493
81 -77 138 -109 237 -134 73 -18 90 -19 172 -9 267 33 456 252 456 528 0 221
-151 429 -358 493 -79 25 -189 33 -257 19z m245 -198 c69 -36 97 -61 134 -115
109 -162 78 -370 -74 -491 -60 -47 -165 -80 -232 -72 -136 16 -250 114 -299
254 -44 128 -3 271 106 372 75 69 114 82 225 78 75 -2 104 -8 140 -26z"/>
<path d="M6403 6799 c-63 -18 -83 -90 -38 -134 24 -25 25 -25 223 -25 193 0
199 1 220 23 51 55 26 119 -53 137 -51 12 -310 11 -352 -1z"/>
<path d="M3765 5078 c-52 -30 -62 -99 -19 -139 l26 -24 1900 -3 1900 -2 34 34
c19 19 34 41 34 50 0 30 -30 77 -56 86 -39 15 -3793 13 -3819 -2z"/>
<path d="M3759 4485 c-59 -32 -58 -108 2 -144 31 -19 75 -19 1923 -18 1789 2
1893 3 1919 20 51 33 48 104 -6 137 -32 20 -60 20 -1922 20 -1613 -1 -1894 -3
-1916 -15z"/>
<path d="M3758 3874 c-28 -15 -48 -64 -40 -97 2 -9 18 -28 34 -42 l30 -25
1905 2 1905 3 24 28 c38 44 27 99 -26 130 -26 16 -172 17 -1917 17 -1647 -1
-1891 -3 -1915 -16z"/>
<path d="M3759 3275 c-33 -18 -52 -66 -39 -99 5 -13 21 -33 36 -45 l27 -21
1899 0 1900 0 29 29 c20 20 29 39 29 61 0 22 -9 41 -29 61 l-29 29 -1899 0
c-1630 -1 -1902 -3 -1924 -15z"/>
<path d="M3775 2671 c-66 -27 -79 -105 -27 -152 l32 -29 1906 2 1906 3 24 28
c42 49 22 125 -37 146 -38 13 -3772 15 -3804 2z"/>
</g>
</svg>
