<?xml version="1.0" standalone="no"?>
<!DOCTYPE svg PUBLIC "-//W3C//DTD SVG 20010904//EN"
 "http://www.w3.org/TR/2001/REC-SVG-20010904/DTD/svg10.dtd">
<svg version="1.0" xmlns="http://www.w3.org/2000/svg"
 width="1024.000000pt" height="1024.000000pt" viewBox="0 0 1024.000000 1024.000000"
 preserveAspectRatio="xMidYMid meet">
<metadata>
Created by potrace 1.16, written by Peter Selinger 2001-2019
</metadata>
<g transform="translate(0.000000,1024.000000) scale(0.100000,-0.100000)"
fill="#000000" stroke="none">
<path d="M8105 9691 c-27 -10 -138 -60 -245 -111 -107 -50 -395 -184 -640
-297 -245 -113 -483 -223 -529 -244 -46 -21 -87 -39 -91 -39 -4 0 -9 60 -12
134 -4 132 -15 175 -41 159 -6 -3 -7 -1 -3 5 10 17 -32 34 -67 27 -18 -4 -114
-46 -215 -92 -103 -48 -187 -82 -191 -77 -5 5 -14 27 -21 49 -17 55 -47 113
-79 152 -26 33 -55 48 -30 16 7 -10 1 -7 -14 6 -30 27 -37 41 -9 20 15 -12 15
-11 -1 8 -10 12 -42 31 -70 43 -42 19 -64 22 -127 18 -69 -5 -91 -13 -277 -98
-111 -51 -200 -97 -197 -101 3 -5 -1 -6 -8 -4 -14 6 -160 -60 -538 -240 -124
-59 -466 -219 -760 -355 -557 -258 -1124 -522 -1535 -715 -132 -62 -359 -169
-505 -237 -146 -69 -327 -153 -403 -188 -166 -76 -221 -121 -269 -218 l-33
-67 -3 -3172 -2 -3172 23 -27 c16 -19 34 -27 54 -27 18 0 106 36 209 85 99 47
258 121 354 163 96 42 315 139 485 215 387 173 1186 529 1203 537 10 4 12 -15
10 -93 -2 -55 -2 -177 0 -271 l2 -172 31 -17 c20 -10 43 -14 62 -10 53 11 721
309 1722 769 610 280 843 389 1745 812 191 90 380 181 709 342 245 119 257
127 327 196 59 60 80 90 122 177 27 58 71 164 98 235 26 72 49 132 51 134 2 2
49 -10 106 -28 56 -17 110 -31 120 -31 10 0 137 105 282 233 l263 232 -1 445
-2 444 -25 13 c-66 34 -523 203 -550 203 -25 0 -59 -28 -215 -176 -101 -97
-182 -180 -180 -184 3 -5 0 -12 -6 -16 -8 -5 -9 -3 -4 7 4 8 -8 -1 -28 -20
-20 -19 -34 -38 -31 -43 3 -5 0 -7 -8 -6 -7 2 -12 -3 -10 -10 1 -8 -2 -11 -8
-7 -6 4 -45 -26 -88 -66 l-77 -72 -5 -334 c-4 -280 -7 -335 -20 -343 -17 -10
-156 -49 -205 -57 -26 -4 -32 -2 -32 13 1 73 -2 82 -40 97 -97 38 -321 117
-350 123 -30 6 -41 -2 -217 -167 l-186 -174 0 -142 0 -142 -57 -6 c-32 -3 -67
-7 -77 -8 -17 -2 -19 5 -17 75 2 77 2 78 -30 97 -17 11 -103 43 -189 71 -176
58 -164 47 -175 160 -3 36 -13 107 -22 159 l-15 93 48 50 c27 27 57 54 67 60
31 16 93 -1 126 -34 27 -28 34 -30 73 -25 61 8 118 69 118 126 0 23 -7 46 -16
55 -14 15 -12 20 20 58 l36 42 -2 265 -3 264 -90 34 c-291 108 -443 163 -456
163 -12 0 -21 46 -45 221 l-30 221 36 30 c19 17 110 104 202 193 l166 162 -5
62 -6 61 44 18 c24 10 86 34 137 52 86 31 93 32 110 16 10 -9 22 -13 27 -9 4
5 5 3 1 -4 -8 -14 30 -36 92 -53 63 -16 131 8 193 70 43 43 58 72 73 141 4 20
18 31 55 47 l50 20 -5 -146 c-2 -81 -6 -202 -9 -270 -4 -117 -3 -123 18 -137
12 -8 112 -45 222 -84 110 -38 230 -81 268 -95 37 -14 74 -26 81 -26 8 0 76
58 153 128 76 71 201 186 278 257 77 71 142 132 143 137 7 17 43 7 51 -14 4
-13 11 -86 15 -163 3 -77 9 -174 12 -215 l7 -76 -42 -27 c-77 -51 -116 -137
-100 -222 16 -85 74 -136 169 -149 130 -18 234 157 171 288 -21 42 -65 85
-103 99 -19 7 -24 49 -34 281 -3 82 -8 155 -11 162 -3 9 26 3 86 -17 l92 -31
32 25 c17 13 107 90 200 171 l167 147 0 288 c0 225 -3 291 -13 299 -21 18
-344 141 -385 147 -35 6 -41 2 -114 -65 -43 -39 -77 -76 -75 -83 1 -6 -5 -11
-13 -12 -8 -1 -14 -6 -12 -13 1 -7 -4 -11 -10 -10 -7 2 -12 -2 -11 -7 1 -6 -7
-11 -17 -12 -19 -2 -20 23 -22 1110 l-3 1112 -28 60 c-32 68 -55 97 -70 88 -5
-3 -7 -2 -4 4 9 14 -30 48 -83 72 -57 26 -147 27 -215 2z m187 -74 c9 -1 14
-6 11 -11 -4 -5 1 -7 9 -3 14 5 88 -58 88 -76 0 -3 -19 13 -41 36 l-42 42 38
-44 c73 -85 68 11 66 -1260 -1 -630 -3 -1146 -5 -1148 -1 -2 -40 12 -87 31
-271 108 -402 156 -422 156 -16 0 -69 -42 -165 -131 -78 -72 -140 -135 -137
-139 3 -4 -3 -14 -13 -21 -16 -13 -16 -12 -2 6 14 20 14 20 -7 1 -13 -10 -20
-24 -16 -30 3 -6 2 -8 -2 -3 -11 10 -46 -23 -38 -36 3 -5 2 -7 -4 -4 -6 4 -62
-40 -124 -96 -63 -56 -131 -115 -152 -130 l-37 -28 -9 23 c-13 33 -70 84 -113
102 -75 32 -145 16 -218 -50 -55 -50 -72 -86 -79 -163 l-6 -64 -110 -38 c-60
-21 -113 -38 -117 -39 -5 0 -8 42 -8 93 0 59 -5 99 -13 110 -16 23 -428 187
-468 187 -25 0 -45 -14 -100 -66 -38 -37 -66 -70 -64 -74 3 -4 -1 -7 -9 -6 -7
0 -63 -47 -124 -106 l-112 -106 0 -245 0 -245 43 -16 c23 -9 106 -38 183 -65
187 -65 184 -63 184 -111 0 -47 45 -410 59 -469 l9 -41 -121 -113 c-66 -61
-139 -130 -161 -151 l-41 -39 -100 35 c-55 20 -143 51 -195 70 -52 18 -96 34
-98 34 -2 1 -13 66 -26 145 -39 235 -38 216 -8 227 68 23 137 110 152 190 14
74 -4 137 -54 186 -90 90 -205 87 -302 -9 -45 -43 -54 -58 -64 -109 -6 -32 -9
-73 -6 -91 7 -38 9 -37 -144 -75 -47 -12 -93 -23 -102 -26 -16 -5 -18 4 -18
85 0 83 -2 92 -23 106 -43 28 -327 135 -358 135 -26 0 -49 -18 -146 -113
l-115 -113 1 -193 c1 -106 4 -197 6 -201 3 -5 29 -16 58 -25 28 -10 101 -35
160 -57 77 -29 114 -38 127 -32 10 5 78 59 149 119 113 95 130 114 131 140 0
36 9 50 35 57 11 3 79 22 151 41 l132 36 66 -35 c36 -20 64 -39 61 -44 -7 -11
32 -282 46 -317 10 -26 3 -34 -163 -198 -95 -94 -192 -187 -215 -208 l-43 -38
0 -279 0 -279 28 -14 c15 -8 130 -47 255 -87 l228 -72 56 49 c32 26 101 92
155 145 54 54 113 105 131 114 17 9 51 34 74 56 l41 41 139 -42 c76 -23 154
-48 173 -54 l34 -13 22 -159 22 -160 -67 -65 c-36 -36 -103 -99 -149 -142
l-82 -76 2 -248 3 -248 200 -63 c110 -34 205 -62 210 -62 12 -1 316 274 330
298 5 9 8 64 6 123 l-3 106 59 7 c32 4 66 9 76 11 15 5 17 -2 17 -54 l0 -59
38 -7 c21 -3 125 -30 231 -61 107 -30 200 -55 208 -55 17 0 318 273 327 296 3
9 6 85 6 170 0 115 3 156 13 158 147 46 219 63 243 59 16 -2 104 -28 197 -56
l167 -52 -6 -29 c-16 -76 -79 -251 -123 -341 -83 -173 -130 -205 -641 -445
-91 -43 -266 -126 -390 -185 -488 -233 -1730 -809 -2240 -1040 -113 -51 -371
-168 -575 -261 -296 -133 -570 -255 -703 -311 -12 -5 -13 477 -9 2943 4 2726
5 2953 21 3008 32 112 103 216 191 276 24 17 126 68 227 114 206 94 683 318
770 361 31 16 54 33 51 38 -3 6 -1 7 5 3 7 -4 90 30 184 75 295 140 376 178
598 281 305 142 838 388 1015 468 83 37 191 87 240 110 110 52 118 55 700 325
586 272 548 256 610 250 28 -3 58 -7 67 -8z m132 -123 c3 -8 2 -12 -4 -9 -6 3
-10 10 -10 16 0 14 7 11 14 -7z m23 -146 c-2 -13 -4 -3 -4 22 0 25 2 35 4 23
2 -13 2 -33 0 -45z m-2625 12 c22 -11 45 -17 50 -14 4 3 7 0 6 -8 -2 -7 4 -12
12 -10 8 2 12 0 7 -4 -9 -9 22 -46 34 -39 4 3 11 0 15 -6 4 -8 3 -9 -4 -5 -17
10 -15 2 8 -37 l21 -35 -41 20 c-53 26 -146 28 -220 3 -59 -19 -141 -55 -455
-200 -271 -125 -295 -137 -289 -147 3 -4 -1 -5 -9 -2 -8 3 -109 -39 -223 -94
-115 -55 -229 -109 -254 -120 -25 -11 -110 -49 -190 -85 -80 -36 -203 -93
-275 -127 -427 -204 -1160 -550 -1310 -617 -89 -40 -755 -355 -990 -468 -158
-76 -242 -162 -288 -296 l-22 -64 -3 -2850 c-2 -2001 1 -2871 8 -2920 12 -78
45 -143 86 -170 l27 -17 -119 -58 c-65 -31 -122 -55 -126 -53 -5 2 -8 1407 -8
3122 0 3425 -5 3170 60 3259 41 56 79 80 270 165 265 119 490 229 484 238 -3
5 1 6 8 4 8 -3 90 31 182 75 93 45 241 114 330 154 88 41 278 129 421 196 143
67 337 157 430 200 156 71 650 301 1120 522 105 49 321 150 482 225 163 76
289 141 286 146 -4 6 -1 7 7 2 16 -10 131 45 123 58 -3 6 -1 7 5 3 6 -4 42 6
79 22 136 59 195 66 265 32z m-302 -34 c0 -2 -7 -7 -16 -10 -8 -3 -12 -2 -9 4
6 10 25 14 25 6z m985 -230 l0 -140 -130 -59 c-71 -32 -224 -103 -340 -157
-115 -54 -381 -178 -590 -275 -209 -98 -519 -245 -690 -327 -635 -307 -792
-378 -837 -378 -134 0 -331 -58 -441 -130 -109 -72 -183 -174 -218 -301 -10
-34 -13 -618 -16 -2508 l-4 -2465 -42 -80 c-58 -111 -154 -206 -272 -268 -83
-43 -747 -346 -929 -425 -145 -62 -187 -60 -242 13 l-29 37 0 2606 0 2606 23
51 c13 28 39 66 57 84 19 18 32 36 30 40 -3 4 1 7 8 7 6 -1 93 38 192 87 99
48 264 128 367 178 103 50 185 95 182 99 -3 5 3 6 12 2 12 -4 15 -3 10 5 -4 7
-2 10 7 6 7 -2 90 33 183 79 93 46 202 99 241 117 41 18 70 37 66 43 -3 6 -1
7 6 3 15 -10 172 64 164 77 -4 6 -1 7 6 3 16 -10 73 13 64 27 -3 6 -1 7 5 3
24 -15 1091 501 1070 517 -9 6 -8 7 5 3 25 -8 402 174 385 186 -9 6 -6 7 9 3
23 -6 155 53 147 67 -3 4 3 5 12 1 13 -5 15 -3 9 7 -6 9 -4 11 4 5 13 -7 363
154 356 164 -1 3 7 7 18 8 20 1 295 130 912 427 110 53 207 95 215 94 12 -3
15 -27 15 -142z m-860 84 c-3 -5 -12 -10 -18 -10 -7 0 -6 4 3 10 19 12 23 12
15 0z m275 -55 c27 -13 51 -28 54 -33 3 -5 -39 -27 -92 -49 -53 -22 -270 -122
-482 -223 -212 -100 -450 -213 -530 -250 -80 -37 -284 -136 -455 -220 -484
-238 -640 -313 -925 -445 -146 -68 -402 -189 -570 -270 -168 -81 -411 -198
-540 -260 -636 -304 -626 -298 -685 -399 -60 -102 -57 52 -57 -2766 l-1 -2575
23 -52 c35 -83 116 -143 193 -143 33 0 153 49 477 195 179 81 386 174 460 207
231 103 343 182 423 297 l31 45 9 -30 c28 -86 105 -157 205 -190 63 -20 66
-22 42 -33 -148 -64 -997 -440 -1230 -546 -399 -180 -652 -286 -670 -280 -33
10 -70 46 -90 86 -20 38 -20 71 -20 2913 0 2834 0 2875 20 2938 18 58 66 131
110 165 8 6 15 17 15 24 0 7 10 13 23 14 12 1 28 8 35 15 10 10 8 12 -6 7 -11
-4 -16 -3 -12 4 4 5 16 7 27 3 15 -4 18 -3 13 6 -5 8 -4 11 3 7 5 -4 18 -4 27
-1 11 5 13 9 5 14 -6 4 2 7 17 7 37 0 354 153 346 166 -4 6 -1 7 7 2 15 -9
212 84 204 97 -3 4 3 5 12 1 13 -5 15 -3 9 7 -5 9 -4 11 4 6 11 -7 363 153
1106 504 160 75 327 154 372 175 45 21 80 42 77 46 -3 5 1 6 9 3 8 -3 52 13
97 36 45 23 213 101 373 174 362 165 407 188 401 198 -3 4 1 5 8 3 7 -3 99 34
203 83 105 49 252 117 327 152 81 36 135 67 131 73 -4 6 -1 7 7 2 15 -9 152
54 144 67 -3 4 1 6 8 3 7 -3 42 6 78 20 88 33 165 33 230 0z m5 -85 c-3 -5
-14 -10 -23 -9 -14 0 -13 2 3 9 27 11 27 11 20 0z m-485 -14 c0 -2 -7 -7 -16
-10 -8 -3 -12 -2 -9 4 6 10 25 14 25 6z m315 -86 c-3 -5 -12 -10 -18 -10 -7 0
-6 4 3 10 19 12 23 12 15 0z m-1119 -25 c-11 -8 -25 -15 -30 -15 -6 1 0 7 14
15 32 19 40 18 16 0z m564 0 c-14 -8 -29 -14 -35 -14 -5 0 1 6 15 14 14 8 30
14 35 14 6 0 -1 -6 -15 -14z m-615 -25 c-3 -5 -12 -10 -18 -10 -7 0 -6 4 3 10
19 12 23 12 15 0z m485 -35 c-14 -8 -29 -14 -35 -14 -5 0 1 6 15 14 14 8 30
14 35 14 6 0 -1 -6 -15 -14z m-51 -19 c-2 -2 -15 -9 -29 -15 -24 -11 -24 -11
-6 3 16 13 49 24 35 12z m-99 -51 c-25 -13 -49 -24 -55 -24 -5 0 10 11 35 24
25 13 50 24 55 24 6 0 -10 -11 -35 -24z m-590 -10 c0 -6 -56 -35 -67 -35 -4 1
8 9 27 20 39 22 40 22 40 15z m370 -30 c-14 -8 -29 -14 -35 -14 -5 0 1 6 15
14 14 8 30 14 35 14 6 0 -1 -6 -15 -14z m145 5 c-3 -5 -12 -10 -18 -10 -7 0
-6 4 3 10 19 12 23 12 15 0z m365 -100 c-30 -16 -59 -29 -65 -29 -5 0 15 13
45 29 30 16 60 29 65 29 6 0 -15 -13 -45 -29z m-630 -25 c-25 -13 -49 -24 -55
-24 -5 0 10 11 35 24 25 13 50 24 55 24 6 0 -10 -11 -35 -24z m545 -15 c-3 -5
-12 -10 -18 -10 -7 0 -6 4 3 10 19 12 23 12 15 0z m-625 -20 c-8 -5 -19 -10
-25 -10 -5 0 -3 5 5 10 8 5 20 10 25 10 6 0 3 -5 -5 -10z m585 0 c-3 -5 -12
-10 -18 -10 -7 0 -6 4 3 10 19 12 23 12 15 0z m-765 -50 c-8 -5 -19 -10 -25
-10 -5 0 -3 5 5 10 8 5 20 10 25 10 6 0 3 -5 -5 -10z m20 -25 c-14 -8 -29 -14
-35 -14 -5 0 1 6 15 14 14 8 30 14 35 14 6 0 -1 -6 -15 -14z m-190 -85 c-8 -5
-19 -10 -25 -10 -5 0 -3 5 5 10 8 5 20 10 25 10 6 0 3 -5 -5 -10z m-150 -40
c-8 -5 -19 -10 -25 -10 -5 0 -3 5 5 10 8 5 20 10 25 10 6 0 3 -5 -5 -10z
m-564 -35 c-11 -8 -25 -15 -30 -15 -6 1 0 7 14 15 32 19 40 18 16 0z m534 -9
c0 -2 -7 -7 -16 -10 -8 -3 -12 -2 -9 4 6 10 25 14 25 6z m-90 -46 c-8 -5 -19
-10 -25 -10 -5 0 -3 5 5 10 8 5 20 10 25 10 6 0 3 -5 -5 -10z m-100 -45 c-25
-13 -49 -24 -55 -24 -5 0 10 11 35 24 25 13 50 24 55 24 6 0 -10 -11 -35 -24z
m-130 -59 c0 -2 -7 -7 -16 -10 -8 -3 -12 -2 -9 4 6 10 25 14 25 6z m-720 -76
c-8 -5 -19 -10 -25 -10 -5 0 -3 5 5 10 8 5 20 10 25 10 6 0 3 -5 -5 -10z m200
-170 c-8 -5 -19 -10 -25 -10 -5 0 -3 5 5 10 8 5 20 10 25 10 6 0 3 -5 -5 -10z
m-170 -50 c-8 -5 -19 -10 -25 -10 -5 0 -3 5 5 10 8 5 20 10 25 10 6 0 3 -5 -5
-10z m-724 -105 c-11 -8 -25 -15 -30 -15 -6 1 0 7 14 15 32 19 40 18 16 0z
m383 -79 c-2 -2 -15 -9 -29 -15 -24 -11 -24 -11 -6 3 16 13 49 24 35 12z m626
-6 c-3 -5 -12 -10 -18 -10 -7 0 -6 4 3 10 19 12 23 12 15 0z m-685 -24 c0 -2
-7 -7 -16 -10 -8 -3 -12 -2 -9 4 6 10 25 14 25 6z m-640 -41 c-25 -13 -49 -24
-55 -24 -5 0 10 11 35 24 25 13 50 24 55 24 6 0 -10 -11 -35 -24z m565 5 c-3
-5 -12 -10 -18 -10 -7 0 -6 4 3 10 19 12 23 12 15 0z m-40 -20 c-3 -5 -12 -10
-18 -10 -7 0 -6 4 3 10 19 12 23 12 15 0z m1248 -43 c-92 -97 -135 -184 -152
-310 -7 -51 -11 -904 -11 -2656 -1 -2012 -3 -2581 -13 -2581 -29 0 -115 50
-144 83 -18 20 -37 56 -44 79 -8 32 -10 673 -6 2548 6 2719 2 2552 58 2663 42
84 174 181 288 213 74 20 76 17 24 -39z m-633 39 c0 -2 -7 -7 -16 -10 -8 -3
-12 -2 -9 4 6 10 25 14 25 6z m-120 -60 c0 -2 -7 -7 -16 -10 -8 -3 -12 -2 -9
4 6 10 25 14 25 6z m5852 -212 c4 -3 55 -23 115 -44 59 -20 127 -45 151 -55
l42 -17 0 -248 0 -248 -47 -38 c-27 -21 -80 -67 -120 -102 -39 -35 -95 -80
-124 -101 l-52 -37 -106 39 c-58 21 -134 48 -168 58 l-63 20 0 227 0 227 110
103 c61 58 107 108 104 114 -4 6 -2 8 3 5 13 -8 105 71 98 84 -4 5 0 6 8 3 8
-3 18 -1 22 5 7 12 19 14 27 5z m-726 -162 c82 -32 177 -69 212 -82 56 -20 61
-24 45 -36 -17 -13 -17 -14 0 -8 16 6 17 -11 17 -270 l0 -276 25 -12 c13 -6
22 -15 19 -20 -3 -5 -118 -112 -255 -238 l-249 -228 -47 19 c-27 11 -135 52
-241 92 l-193 72 0 285 -1 284 44 40 c23 22 90 85 148 140 213 205 311 296
319 296 4 0 75 -26 157 -58z m-1806 -461 c96 -38 184 -71 194 -75 18 -6 19
-15 13 -184 l-6 -177 -88 -83 c-48 -46 -127 -119 -175 -163 l-88 -79 -67 26
c-38 15 -121 45 -185 68 l-117 41 -3 185 -3 185 162 163 c89 89 168 162 175
162 7 0 91 -31 188 -69z m830 29 c118 -84 0 -302 -139 -256 -48 16 -73 55 -79
119 -4 52 -2 57 34 97 65 72 122 84 184 40z m-5423 -267 c-2 -21 -4 -4 -4 37
0 41 2 58 4 38 2 -21 2 -55 0 -75z m4010 -70 c-2 -16 -4 -3 -4 27 0 30 2 43 4
28 2 -16 2 -40 0 -55z m-3980 -125 c-3 -7 -5 -2 -5 12 0 14 2 19 5 13 2 -7 2
-19 0 -25z m3980 0 c-3 -8 -6 -5 -6 6 -1 11 2 17 5 13 3 -3 4 -12 1 -19z
m-4010 -80 c-2 -13 -4 -3 -4 22 0 25 2 35 4 23 2 -13 2 -33 0 -45z m30 -115
c-2 -21 -4 -6 -4 32 0 39 2 55 4 38 2 -18 2 -50 0 -70z m3711 -223 c82 -50 66
-182 -27 -230 -97 -49 -181 2 -181 111 0 49 3 55 45 96 39 37 51 43 88 43 24
0 56 -8 75 -20z m3225 -1 c36 -19 57 -52 57 -92 0 -54 -52 -107 -103 -107 -53
0 -89 35 -91 87 -1 49 16 83 52 106 32 19 55 21 85 6z m-3993 -89 l125 -48 -2
-133 c-2 -118 -5 -135 -22 -149 -10 -8 -62 -50 -114 -93 l-96 -78 -68 29 c-37
16 -92 37 -120 47 l-53 17 0 147 0 147 90 88 c76 74 93 87 112 80 13 -4 79
-28 148 -54z m-2943 -402 c-1 -84 -3 -16 -3 152 0 168 2 236 3 153 2 -84 2
-222 0 -305z m-30 305 c-3 -10 -5 -2 -5 17 0 19 2 27 5 18 2 -10 2 -26 0 -35z
m6991 -341 c20 -10 126 -52 235 -93 l197 -74 0 -397 c0 -396 0 -397 -22 -412
-12 -8 -26 -12 -31 -9 -6 3 -7 1 -4 -4 6 -9 -196 -195 -366 -337 l-59 -50
-299 100 -298 99 -1 323 0 323 123 117 c67 64 195 188 284 274 104 102 170
158 183 158 11 0 37 -8 58 -18z m-2265 -63 c73 -29 168 -66 212 -83 l80 -31 0
-225 0 -225 -29 -3 c-36 -4 -136 -101 -136 -131 0 -20 -4 -21 -69 -15 l-69 7
-85 -82 -85 -82 -161 53 -161 52 0 230 0 231 177 177 c98 98 181 178 186 178
4 0 67 -23 140 -51z m-4696 -166 c-2 -21 -4 -4 -4 37 0 41 2 58 4 38 2 -21 2
-55 0 -75z m3893 -100 c96 -35 180 -65 185 -67 6 -2 9 -43 7 -105 -2 -56 -7
-99 -12 -96 -4 3 -13 -7 -18 -22 -8 -26 -9 -24 -8 14 2 85 -80 122 -159 73
-43 -26 -55 -47 -55 -95 0 -43 15 -75 35 -75 8 0 15 -4 15 -10 0 -5 -6 -10
-14 -10 -23 0 -56 -50 -56 -85 0 -18 9 -44 21 -59 21 -26 22 -26 48 -10 14 9
37 26 51 38 14 11 10 6 -10 -12 -110 -101 -110 -101 -110 -136 0 -23 9 -45 24
-63 l25 -28 43 40 c24 23 54 49 68 60 32 25 -115 -114 -203 -192 l-69 -61 -56
23 c-32 12 -123 44 -204 71 l-148 48 0 226 0 226 55 54 c30 29 51 58 48 63 -3
6 -2 8 3 5 5 -3 72 54 149 128 95 90 145 131 155 127 8 -3 94 -35 190 -70z
m2580 43 c0 -2 -8 -10 -17 -17 -16 -13 -17 -12 -4 4 13 16 21 21 21 13z
m-6493 -48 c-3 -7 -5 -2 -5 12 0 14 2 19 5 13 2 -7 2 -19 0 -25z m0 -205 c-2
-21 -4 -4 -4 37 0 41 2 58 4 38 2 -21 2 -55 0 -75z m4093 -356 c0 -2 -17 -19
-37 -38 l-38 -34 34 38 c33 34 41 42 41 34z m-232 -132 c-3 -3 -9 2 -12 12 -6
14 -5 15 5 6 7 -7 10 -15 7 -18z m1760 -63 c2 -6 -63 -79 -144 -162 -81 -82
-144 -153 -141 -157 4 -3 7 -1 7 6 0 8 6 11 16 7 9 -4 13 -2 8 5 -7 12 145
171 157 164 7 -5 36 25 31 32 -1 2 16 26 40 54 26 31 48 48 58 45 8 -2 70 -24
138 -48 l123 -44 0 -215 1 -214 -32 -28 c-17 -15 -36 -25 -42 -21 -6 4 -8 3
-5 -3 4 -6 -35 -49 -87 -96 l-93 -86 -72 21 c-49 15 -68 24 -59 30 9 6 6 7 -8
4 -11 -4 -58 5 -104 19 -46 14 -93 25 -104 25 -21 0 -21 4 -21 191 l1 191 152
150 c142 140 170 160 180 130z m-5601 -339 c-2 -16 -4 -5 -4 22 0 28 2 40 4
28 2 -13 2 -35 0 -50z m4796 -42 c81 -26 148 -51 147 -55 0 -3 0 -93 0 -198
l0 -193 -120 -110 c-67 -60 -127 -109 -135 -109 -8 1 -14 -1 -13 -5 0 -3 0 -9
-1 -13 0 -4 -72 18 -158 48 l-158 54 -3 187 -2 187 75 76 c42 42 72 80 68 85
-4 4 -3 5 3 2 5 -3 35 16 65 43 30 27 61 49 69 49 8 0 82 -21 163 -48z m-4796
-298 c-3 -10 -5 -4 -5 12 0 17 2 24 5 18 2 -7 2 -21 0 -30z m0 -135 c-2 -24
-4 -7 -4 37 0 44 2 63 4 43 2 -21 2 -57 0 -80z m0 -635 c-2 -32 -3 -8 -3 52 0
61 1 87 3 58 2 -29 2 -78 0 -110z m0 -590 c-1 -81 -3 -17 -3 142 0 160 2 226
3 148 2 -78 2 -208 0 -290z m0 -325 c-3 -8 -6 -5 -6 6 -1 11 2 17 5 13 3 -3 4
-12 1 -19z"/>
<path d="M7959 3694 c-1 -5 -1 -13 0 -17 1 -5 -3 -6 -8 -3 -15 10 -41 -35 -41
-69 0 -38 27 -78 47 -71 8 3 12 2 9 -3 -3 -5 1 -12 10 -15 20 -8 56 2 49 14
-3 4 3 7 13 6 9 0 16 5 14 12 -1 8 2 11 8 7 5 -3 15 6 20 20 26 69 -1 114 -73
122 -26 3 -48 2 -48 -3z"/>
<path d="M1430 1101 c5 -11 15 -23 21 -27 6 -3 3 5 -6 20 -20 30 -30 35 -15 7z"/>
<path d="M1622 6280 c0 -19 2 -27 5 -17 2 9 2 25 0 35 -3 9 -5 1 -5 -18z"/>
<path d="M1625 5790 c0 -245 1 -345 2 -222 2 122 2 322 0 445 -1 122 -2 22 -2
-223z"/>
<path d="M1624 3875 c0 -143 2 -200 3 -127 2 73 2 190 0 260 -1 70 -3 10 -3
-133z"/>
<path d="M1622 3560 c0 -19 2 -27 5 -17 2 9 2 25 0 35 -3 9 -5 1 -5 -18z"/>
<path d="M1622 3480 c0 -19 2 -27 5 -17 2 9 2 25 0 35 -3 9 -5 1 -5 -18z"/>
<path d="M1624 3160 c0 -58 1 -81 3 -52 2 28 2 76 0 105 -2 28 -3 5 -3 -53z"/>
<path d="M3420 1930 c0 -6 7 -10 15 -10 8 0 15 2 15 4 0 2 -7 6 -15 10 -8 3
-15 1 -15 -4z"/>
<path d="M8479 7013 c-13 -16 -12 -17 4 -4 16 13 21 21 13 21 -2 0 -10 -8 -17
-17z"/>
<path d="M8651 5843 c7 -12 15 -20 18 -17 3 2 -3 12 -13 22 -17 16 -18 16 -5
-5z"/>
<path d="M8615 5320 c-16 -11 -25 -20 -20 -20 10 0 64 39 55 40 -3 0 -18 -9
-35 -20z"/>
<path d="M8299 5013 l-34 -38 38 34 c34 33 42 41 34 41 -2 0 -19 -17 -38 -37z"/>
<path d="M8304 4626 c-39 -39 -44 -75 -15 -121 16 -27 17 -33 4 -58 -25 -50 8
-107 62 -107 51 0 101 68 91 124 -3 19 0 38 9 50 42 56 -8 146 -80 146 -29 0
-45 -8 -71 -34z"/>
<path d="M7528 4163 c7 -3 16 -2 19 1 4 3 -2 6 -13 5 -11 0 -14 -3 -6 -6z"/>
<path d="M7570 3942 c0 -145 -3 -201 -12 -211 -11 -10 -10 -11 5 -6 15 7 17
26 17 211 0 112 -2 204 -5 204 -3 0 -5 -89 -5 -198z"/>
<path d="M7011 3914 c0 -11 3 -14 6 -6 3 7 2 16 -1 19 -3 4 -6 -2 -5 -13z"/>
<path d="M7524 3738 c0 -10 1 -18 3 -18 1 0 7 8 12 18 7 13 6 19 -2 19 -7 0
-13 -9 -13 -19z"/>
<path d="M7014 3630 c1 -16 7 -25 19 -26 11 -1 12 0 3 3 -8 2 -17 14 -19 26
-3 18 -4 18 -3 -3z"/>
<path d="M7383 3585 c0 -8 4 -15 9 -15 4 0 8 4 8 9 0 6 -4 12 -8 15 -5 3 -9
-1 -9 -9z"/>
<path d="M7343 3546 c0 -17 3 -23 7 -16 4 7 14 17 21 22 11 8 10 9 -3 5 -9 -3
-19 -1 -21 6 -2 7 -4 -1 -4 -17z"/>
<path d="M7245 3540 c11 -5 27 -9 35 -9 9 0 8 4 -5 9 -11 5 -27 9 -35 9 -9 0
-8 -4 5 -9z"/>
<path d="M6235 3778 l-90 -93 93 90 c50 49 92 91 92 92 0 8 -12 -4 -95 -89z"/>
<path d="M8035 5638 c-33 -19 -44 -41 -45 -85 0 -33 5 -46 26 -62 37 -29 70
-26 105 8 22 22 29 39 29 68 0 44 -6 55 -37 72 -27 14 -52 14 -78 -1z"/>
<path d="M7987 5340 c-34 -27 -43 -70 -22 -109 15 -29 32 -37 75 -32 26 3 70
59 70 89 0 67 -68 95 -123 52z"/>
<path d="M7482 5049 c-19 -7 -23 -29 -6 -29 3 0 2 5 -1 10 -3 6 -2 10 4 10 5
0 13 -4 16 -10 3 -5 11 -10 17 -10 7 0 7 4 -1 13 -6 8 -8 17 -4 20 8 9 4 8
-25 -4z"/>
<path d="M7529 5045 c-1 -3 -2 -11 -3 -17 0 -7 -11 -13 -22 -14 -30 -2 -44
-12 -38 -28 3 -9 -3 -17 -16 -21 -12 -4 -19 -9 -16 -12 3 -3 0 -15 -6 -26 -9
-17 -6 -23 13 -38 34 -26 72 -23 108 7 31 25 43 51 19 39 -7 -4 -5 0 5 9 11 8
17 22 14 33 -4 17 -5 17 -6 0 0 -10 -6 -15 -11 -12 -7 4 -6 13 1 26 8 16 7 25
-7 40 -16 18 -33 25 -35 14z m21 -39 c-7 -9 -10 -27 -6 -43 5 -27 5 -27 -6 -5
-9 18 -9 28 0 43 7 11 10 25 6 32 -5 9 -4 9 6 0 11 -10 11 -15 0 -27z m-86
-85 c3 -5 -1 -11 -9 -14 -9 -4 -12 -1 -8 9 6 16 10 17 17 5z m61 -1 c-3 -5
-12 -10 -18 -10 -7 0 -6 4 3 10 19 12 23 12 15 0z m25 -15 c0 -2 -10 -9 -22
-15 -22 -11 -22 -10 -4 4 21 17 26 19 26 11z m-70 -15 c0 -5 -5 -10 -11 -10
-5 0 -7 5 -4 10 3 6 8 10 11 10 2 0 4 -4 4 -10z"/>
<path d="M7436 5004 c-9 -23 -7 -36 3 -30 12 8 21 46 11 46 -4 0 -11 -7 -14
-16z"/>
<path d="M7412 4955 c0 -16 2 -22 5 -12 2 9 2 23 0 30 -3 6 -5 -1 -5 -18z"/>
</g>
</svg>
