<?xml version="1.0" standalone="no"?>
<!DOCTYPE svg PUBLIC "-//W3C//DTD SVG 20010904//EN"
 "http://www.w3.org/TR/2001/REC-SVG-20010904/DTD/svg10.dtd">
<svg version="1.0" xmlns="http://www.w3.org/2000/svg"
 width="1024.000000pt" height="1024.000000pt" viewBox="0 0 1024.000000 1024.000000"
 preserveAspectRatio="xMidYMid meet">
<metadata>
Created by potrace 1.16, written by Peter Selinger 2001-2019
</metadata>
<g transform="translate(0.000000,1024.000000) scale(0.100000,-0.100000)"
fill="#000000" stroke="none">
<path d="M5875 8045 c-5 -2 -66 -20 -135 -40 -69 -20 -181 -54 -250 -75 -260
-81 -842 -255 -1085 -325 -88 -25 -194 -56 -235 -69 -61 -20 -554 -165 -988
-292 -96 -29 -139 -62 -176 -136 l-26 -52 0 -2203 c0 -1922 2 -2208 15 -2239
9 -23 19 -33 26 -28 8 4 9 3 5 -5 -10 -15 13 -43 27 -34 6 3 7 1 3 -5 -4 -7 6
-20 26 -32 27 -16 50 -20 131 -20 l97 0 0 -53 c0 -98 35 -169 103 -207 l38
-22 1471 1 c931 1 1476 5 1483 11 8 7 22 5 41 -4 22 -11 51 -13 124 -7 52 4
111 4 130 -1 40 -9 156 0 183 14 12 6 23 6 32 -2 22 -18 186 -15 223 4 39 20
88 85 103 135 7 25 9 808 7 2456 l-3 2420 -30 60 c-16 33 -36 59 -42 58 -7 -2
-12 2 -10 8 4 18 -65 49 -109 49 -22 0 -62 -6 -88 -14 -46 -14 -47 -14 -63 10
-38 59 -132 78 -212 43 l-52 -22 -44 43 c-27 27 -48 40 -56 35 -8 -5 -10 -4
-5 4 5 7 -5 17 -28 26 -56 24 -76 24 -166 -1 -47 -13 -97 -26 -112 -29 -15 -3
-39 -10 -53 -15 -15 -6 -30 -10 -34 -10 -4 0 -11 88 -14 195 -5 165 -9 201
-26 240 -13 30 -25 44 -32 39 -7 -4 -9 -3 -6 3 10 16 -27 58 -67 77 -30 14
-94 20 -121 11z m78 -106 c52 -24 52 -22 55 -479 l3 -426 -25 0 c-13 0 -24 5
-23 11 1 5 -5 9 -13 7 -8 -2 -12 0 -7 4 4 4 -10 26 -30 48 -23 25 -14 19 21
-14 126 -118 20 -5 -169 180 l-200 195 155 -160 155 -160 -157 154 c-86 85
-155 158 -152 162 2 4 -10 19 -26 33 l-31 25 3 157 3 158 190 57 c207 63 213
64 248 48z m-543 -306 l0 -157 78 -76 c43 -41 139 -135 215 -208 75 -73 141
-131 146 -128 5 3 15 -2 22 -12 13 -16 12 -16 -6 -2 -20 15 -20 14 -1 -8 11
-12 21 -20 24 -17 9 9 31 -16 26 -29 -3 -7 4 -21 16 -31 26 -24 25 -35 -2 -35
-13 0 -45 -7 -73 -15 -27 -9 -117 -31 -200 -50 -211 -48 -826 -193 -1105 -260
-129 -31 -238 -62 -242 -68 -15 -24 -8 -57 16 -72 22 -15 34 -13 162 18 77 19
229 56 339 82 110 26 254 60 320 76 66 15 237 55 380 89 143 33 310 73 371 88
l112 28 -3 -2041 c-1 -1122 -3 -2048 -5 -2057 -2 -9 -8 -14 -13 -11 -6 4 -8 0
-4 -10 4 -10 2 -16 -6 -14 -7 1 -11 -5 -9 -13 2 -8 0 -12 -4 -8 -4 4 -13 3
-20 -3 -19 -15 -75 -18 -1069 -39 -500 -11 -1047 -25 -1215 -30 -168 -6 -360
-10 -427 -10 -111 0 -123 2 -133 19 -7 14 -10 723 -10 2221 0 2367 -3 2242 48
2269 9 5 157 50 327 101 171 50 337 100 370 110 33 10 155 46 270 80 116 34
260 76 320 95 61 18 182 54 270 80 88 26 225 66 305 90 80 24 195 57 255 75
61 17 115 33 120 35 34 11 35 6 35 -152z m1175 -163 c10 -11 16 -20 13 -20 -3
0 -13 9 -23 20 -10 11 -16 20 -13 20 3 0 13 -9 23 -20z m-215 -2590 c0 -2040
-3 -2561 -12 -2565 -29 -9 -129 -11 -114 -3 9 5 13 14 10 20 -4 6 -3 8 4 4 14
-8 50 38 62 83 8 25 10 781 8 2399 l-3 2364 -23 18 c-22 18 -43 18 -69 -3 -10
-7 -13 -496 -13 -2381 0 -2070 -2 -2375 -15 -2392 -16 -22 -20 -38 -6 -29 5 3
13 1 16 -5 4 -6 3 -10 -2 -9 -4 1 -11 0 -15 -1 -5 -1 -14 -3 -20 -4 -7 -1 -12
-7 -11 -14 2 -7 0 -11 -5 -10 -4 1 -17 -3 -28 -10 -16 -8 -350 -11 -1350 -11
-731 -1 -1336 0 -1344 1 -9 1 -17 11 -19 22 -4 32 -2 148 3 153 4 4 739 23
1651 42 858 18 861 19 903 40 21 11 58 41 82 68 25 26 50 48 55 48 12 0 14
431 14 2937 l1 1736 68 16 c37 8 85 22 107 30 22 8 46 15 53 15 9 1 12 -517
12 -2559z m143 2532 c10 -10 14 -22 10 -26 -4 -4 0 -4 10 0 9 3 14 10 11 15
-9 15 3 10 17 -8 12 -14 12 -16 0 -9 -9 6 -12 5 -9 -5 3 -8 10 -13 15 -12 5 1
10 -8 11 -20 2 -12 3 -996 2 -2187 -1 -1191 -1 -2308 0 -2482 0 -276 -2 -318
-15 -318 -9 0 -15 -9 -15 -22 0 -17 -3 -19 -9 -9 -6 9 -11 10 -15 2 -4 -6 -16
-11 -27 -11 -19 0 -19 33 -19 2555 0 1405 4 2555 8 2555 5 0 16 -8 25 -18z
m-918 -34 c5 4 5 1 1 -6 -6 -10 -11 -10 -22 -1 -8 6 -14 14 -14 16 0 3 6 0 13
-6 8 -6 18 -7 22 -3z m1210 -28 c4 -6 10 -8 15 -5 4 3 14 -3 21 -12 12 -14 12
-16 0 -9 -10 6 -12 4 -7 -10 3 -11 8 -1121 10 -2467 5 -2404 5 -2450 -14
-2487 -22 -44 -35 -50 -101 -50 -48 0 -50 1 -43 23 5 12 9 841 9 1842 1 3126
2 3142 25 3165 21 21 74 27 85 10z m290 -54 c11 -2 19 -9 17 -15 -1 -7 2 -20
8 -31 7 -13 10 -805 10 -2457 0 -2373 -1 -2438 -19 -2456 -21 -21 -95 -33
-136 -23 -24 6 -26 10 -19 39 3 17 6 1131 6 2475 0 2437 0 2444 20 2464 20 20
25 20 113 4z m-408 -438 c-1 -79 -3 -17 -3 137 0 154 2 218 3 143 2 -75 2
-201 0 -280z m-570 235 c-2 -32 -3 -6 -3 57 0 63 1 89 3 58 2 -32 2 -84 0
-115z m270 -100 c-2 -38 -3 -7 -3 67 0 74 1 105 3 68 2 -38 2 -98 0 -135z
m-150 125 c-3 -8 -6 -5 -6 6 -1 11 2 17 5 13 3 -3 4 -12 1 -19z m-120 -180
c-2 -18 -4 -4 -4 32 0 36 2 50 4 33 2 -18 2 -48 0 -65z m120 30 c-3 -8 -6 -5
-6 6 -1 11 2 17 5 13 3 -3 4 -12 1 -19z m0 -40 c-3 -8 -6 -5 -6 6 -1 11 2 17
5 13 3 -3 4 -12 1 -19z m20 -20 c-3 -7 -5 -2 -5 12 0 14 2 19 5 13 2 -7 2 -19
0 -25z m130 -70 c-2 -18 -4 -6 -4 27 0 33 2 48 4 33 2 -15 2 -42 0 -60z
m-3390 20 c-3 -8 -6 -5 -6 6 -1 11 2 17 5 13 3 -3 4 -12 1 -19z m0 -485 c-1
-87 -3 -16 -3 157 0 173 2 244 3 158 2 -87 2 -229 0 -315z m3120 425 c-3 -8
-6 -5 -6 6 -1 11 2 17 5 13 3 -3 4 -12 1 -19z m120 -90 c-2 -18 -4 -6 -4 27 0
33 2 48 4 33 2 -15 2 -42 0 -60z m150 -35 c-3 -10 -5 -4 -5 12 0 17 2 24 5 18
2 -7 2 -21 0 -30z m-150 -25 c-3 -8 -6 -5 -6 6 -1 11 2 17 5 13 3 -3 4 -12 1
-19z m450 -40 c-2 -13 -4 -3 -4 22 0 25 2 35 4 23 2 -13 2 -33 0 -45z m-570
-30 c-3 -7 -5 -2 -5 12 0 14 2 19 5 13 2 -7 2 -19 0 -25z m120 -2861 c-1 -529
-2 -96 -2 963 0 1059 1 1492 2 962 2 -529 2 -1395 0 -1925z m150 2706 c-2 -21
-4 -6 -4 32 0 39 2 55 4 38 2 -18 2 -50 0 -70z m-270 -615 c-1 -112 -2 -23 -2
197 0 220 1 311 2 203 2 -108 2 -288 0 -400z m270 -880 c-1 -266 -2 -51 -2
477 0 528 1 745 2 483 2 -262 2 -694 0 -960z m-3390 905 c-1 -59 -3 -13 -3
102 0 116 2 164 3 108 2 -56 2 -151 0 -210z m3120 -1415 c-1 -194 -2 -36 -2
352 0 388 1 546 2 353 2 -194 2 -512 0 -705z m140 690 c-3 -8 -6 -5 -6 6 -1
11 2 17 5 13 3 -3 4 -12 1 -19z m160 -725 c-2 -16 -4 -3 -4 27 0 30 2 43 4 28
2 -16 2 -40 0 -55z m-30 -110 c-2 -32 -3 -6 -3 57 0 63 1 89 3 58 2 -32 2 -84
0 -115z m-3390 -425 c-1 -95 -3 -18 -3 172 0 190 2 267 3 173 2 -95 2 -251 0
-345z m80 180 c-3 -7 -5 -2 -5 12 0 14 2 19 5 13 2 -7 2 -19 0 -25z m3040 -15
c-3 -10 -5 -2 -5 17 0 19 2 27 5 18 2 -10 2 -26 0 -35z m-3040 -145 c-3 -7 -5
-2 -5 12 0 14 2 19 5 13 2 -7 2 -19 0 -25z m3040 -60 c-2 -13 -4 -5 -4 17 -1
22 1 32 4 23 2 -10 2 -28 0 -40z m270 -205 c-2 -21 -4 -6 -4 32 0 39 2 55 4
38 2 -18 2 -50 0 -70z m0 -215 c-2 -29 -3 -6 -3 52 0 58 1 81 3 53 2 -29 2
-77 0 -105z m-270 -30 c-3 -7 -5 -2 -5 12 0 14 2 19 5 13 2 -7 2 -19 0 -25z
m270 -90 c-2 -13 -4 -5 -4 17 -1 22 1 32 4 23 2 -10 2 -28 0 -40z m-3390 -40
c-2 -18 -4 -6 -4 27 0 33 2 48 4 33 2 -15 2 -42 0 -60z m3120 -45 c-2 -16 -4
-5 -4 22 0 28 2 40 4 28 2 -13 2 -35 0 -50z m270 0 c-3 -10 -5 -2 -5 17 0 19
2 27 5 18 2 -10 2 -26 0 -35z m0 -75 c-2 -13 -4 -5 -4 17 -1 22 1 32 4 23 2
-10 2 -28 0 -40z m0 -140 c-2 -24 -4 -7 -4 37 0 44 2 63 4 43 2 -21 2 -57 0
-80z m300 -265 c-1 -54 -3 -10 -3 97 0 107 2 151 3 98 2 -54 2 -142 0 -195z
m-3690 230 c-3 -10 -5 -2 -5 17 0 19 2 27 5 18 2 -10 2 -26 0 -35z m0 -105
c-2 -18 -4 -6 -4 27 0 33 2 48 4 33 2 -15 2 -42 0 -60z m3390 -25 c-2 -21 -4
-4 -4 37 0 41 2 58 4 38 2 -21 2 -55 0 -75z m-150 -135 c-2 -18 -4 -6 -4 27 0
33 2 48 4 33 2 -15 2 -42 0 -60z m150 -35 c-3 -10 -5 -2 -5 17 0 19 2 27 5 18
2 -10 2 -26 0 -35z m-150 -140 c-2 -27 -3 -5 -3 47 0 52 1 74 3 48 2 -27 2
-69 0 -95z m450 -75 c-3 -8 -6 -5 -6 6 -1 11 2 17 5 13 3 -3 4 -12 1 -19z"/>
<path d="M5135 7254 c-648 -169 -812 -216 -825 -238 -19 -30 -23 -73 -15 -184
11 -155 -26 -152 446 -37 217 53 437 105 489 116 114 25 140 39 140 77 0 33
-16 52 -45 52 -22 0 -136 -27 -425 -100 -85 -22 -235 -60 -332 -84 l-178 -44
0 69 0 68 43 11 c23 6 114 31 202 55 88 24 284 76 435 114 189 48 279 76 287
88 27 36 9 76 -34 78 -15 1 -100 -18 -188 -41z"/>
<path d="M5890 7010 c0 -5 5 -10 11 -10 5 0 7 5 4 10 -3 6 -8 10 -11 10 -2 0
-4 -4 -4 -10z"/>
<path d="M3915 6839 c-82 -22 -247 -65 -365 -95 -213 -54 -242 -66 -235 -102
2 -9 4 -22 4 -29 1 -6 9 -14 19 -17 23 -8 774 181 784 197 15 24 12 68 -5 79
-19 12 -45 8 -202 -33z"/>
<path d="M4010 6605 c-25 -7 -186 -46 -359 -86 -272 -64 -316 -77 -329 -97
-22 -33 -3 -72 36 -72 25 0 396 85 609 139 45 12 92 21 106 21 45 0 70 48 47
91 -12 22 -44 24 -110 4z"/>
<path d="M4015 6353 c-27 -7 -192 -45 -365 -83 -220 -49 -319 -76 -327 -87
-17 -22 -16 -45 0 -67 14 -20 27 -19 142 8 39 8 120 27 180 40 61 14 180 41
266 60 86 20 164 36 172 36 18 0 47 37 47 60 -1 43 -35 53 -115 33z"/>
<path d="M4466 6154 c-13 -12 -16 -40 -16 -144 0 -128 0 -130 25 -146 20 -13
31 -14 49 -6 22 10 24 18 30 137 7 107 5 130 -8 151 -19 28 -57 32 -80 8z"/>
<path d="M5024 6020 c-27 -11 -55 -50 -47 -64 3 -6 3 -8 -2 -4 -10 10 -48 -39
-40 -52 4 -6 1 -9 -7 -8 -7 2 -12 -3 -10 -10 1 -8 -2 -11 -7 -7 -6 3 -22 -13
-37 -35 -26 -39 -26 -41 -9 -60 10 -11 31 -20 46 -20 24 0 41 16 109 100 44
55 80 108 80 119 0 19 -30 51 -46 50 -5 0 -19 -4 -30 -9z"/>
<path d="M3953 5970 c-12 -5 -25 -21 -29 -36 -6 -22 0 -33 42 -73 26 -25 39
-35 29 -21 l-20 25 22 -18 c12 -11 19 -24 17 -31 -6 -17 71 -86 95 -86 20 0
51 35 51 57 0 17 -69 93 -82 90 -6 -1 -12 7 -14 18 -3 20 -67 86 -81 84 -5 0
-18 -4 -30 -9z"/>
<path d="M4414 5764 c-68 -16 -171 -74 -166 -93 1 -7 -2 -10 -8 -6 -13 8 -42
-14 -34 -26 3 -5 0 -8 -8 -7 -7 2 -12 -3 -10 -10 1 -8 -2 -11 -7 -8 -13 8 -34
-21 -25 -35 4 -7 3 -9 -3 -6 -14 9 -46 -40 -37 -55 4 -7 3 -8 -4 -4 -14 8 -46
-50 -38 -70 3 -8 2 -12 -4 -9 -37 23 -50 -314 -16 -417 11 -33 23 -55 29 -51
6 3 7 1 3 -5 -10 -16 22 -74 36 -66 6 4 8 3 5 -3 -9 -14 22 -55 35 -47 6 4 8
3 5 -3 -9 -14 22 -55 35 -47 7 4 8 2 4 -4 -8 -14 28 -74 39 -64 5 4 5 2 1 -5
-3 -6 0 -29 8 -50 9 -23 16 -84 18 -154 3 -104 2 -118 -14 -128 -28 -17 -40
-56 -26 -86 9 -19 19 -25 44 -25 l34 0 -1 -59 c-1 -69 11 -92 72 -133 96 -64
247 -42 315 47 23 31 26 42 22 95 -4 50 -2 60 12 60 30 0 60 30 60 60 0 28
-22 60 -42 60 -10 0 -4 194 8 255 8 37 39 100 70 141 13 17 20 35 16 39 -4 3
-2 5 4 3 26 -8 111 135 149 252 28 86 23 332 -7 314 -7 -4 -8 -2 -4 5 10 16
-3 53 -16 45 -6 -4 -8 -2 -5 4 10 15 -3 43 -16 35 -6 -3 -7 -1 -3 5 9 15 -43
94 -57 85 -5 -3 -7 -2 -4 4 8 13 -78 97 -91 89 -6 -3 -14 -1 -18 5 -5 8 -3 9
6 4 9 -5 11 -4 6 4 -4 6 -26 21 -49 33 -95 48 -206 59 -323 32z m426 -119 c19
-19 32 -35 29 -35 -3 0 -20 16 -39 35 -19 19 -32 35 -29 35 3 0 20 -16 39 -35z
m-162 -8 c30 -15 59 -24 64 -20 6 3 8 2 5 -4 -6 -9 58 -79 78 -85 5 -2 10 -7
10 -13 1 -5 13 -35 28 -66 57 -117 59 -239 9 -371 -17 -42 -27 -80 -23 -84 3
-4 0 -3 -8 1 -11 6 -13 4 -8 -8 4 -10 2 -16 -6 -14 -7 1 -12 -7 -12 -18 0 -11
-5 -20 -10 -20 -19 0 -36 -17 -31 -31 3 -8 0 -13 -7 -11 -7 1 -11 -4 -9 -11 1
-8 -2 -11 -7 -7 -12 7 -43 -49 -33 -60 4 -5 1 -4 -7 0 -11 6 -13 4 -8 -9 5
-11 3 -15 -5 -10 -8 5 -9 2 -5 -10 4 -9 3 -15 -2 -11 -9 5 -23 -28 -38 -86 -3
-13 -8 -81 -10 -151 l-5 -126 -44 -4 -45 -3 2 267 1 267 26 9 c15 6 36 13 46
18 15 6 17 4 11 -7 -5 -8 -5 -11 1 -6 5 5 9 12 9 15 1 12 90 96 98 94 5 -1 6
1 3 6 -2 4 4 26 14 49 31 69 43 146 30 193 -15 56 -31 90 -40 85 -4 -3 -7 3
-6 13 0 9 -5 16 -12 14 -8 -1 -11 1 -8 6 8 13 -52 66 -103 92 -30 15 -61 22
-100 21 -64 0 -157 -31 -153 -50 1 -7 -2 -10 -8 -6 -14 9 -42 -14 -33 -28 3
-5 1 -7 -4 -4 -14 9 -46 -40 -37 -55 5 -7 3 -8 -6 -3 -10 6 -12 4 -7 -9 4 -9
3 -15 -2 -11 -14 8 -35 -64 -35 -125 -1 -73 12 -133 26 -124 6 4 8 3 5 -4 -10
-15 3 -43 16 -35 6 3 7 1 3 -5 -11 -17 49 -77 109 -108 l55 -29 0 -272 0 -273
-35 0 -35 0 0 126 c0 72 -4 123 -9 120 -5 -4 -7 3 -4 13 7 27 -16 93 -29 85
-7 -4 -8 -2 -4 4 9 16 -42 95 -56 86 -7 -4 -8 -3 -4 5 9 13 -12 44 -24 36 -4
-3 -14 3 -21 12 -10 12 -10 14 -1 9 18 -11 15 -1 -17 46 -15 24 -34 60 -42 80
-7 20 -17 34 -22 31 -6 -3 -7 -1 -3 5 3 6 1 43 -5 82 -25 148 18 290 122 404
85 93 164 127 284 123 63 -3 91 -9 133 -30z m12 -172 c13 -14 21 -25 18 -25
-2 0 -15 11 -28 25 -13 14 -21 25 -18 25 2 0 15 -11 28 -25z m-82 -62 c20 -15
41 -27 45 -25 5 1 6 -2 3 -7 -3 -5 1 -22 9 -37 21 -41 19 -122 -5 -168 -10
-22 -17 -43 -14 -48 3 -5 0 -7 -8 -6 -7 2 -12 -3 -11 -9 2 -7 -3 -12 -10 -10
-6 1 -11 -3 -10 -9 1 -7 -3 -11 -10 -11 -7 1 -32 -5 -57 -12 -36 -10 -52 -11
-85 0 -22 7 -43 12 -46 11 -4 0 -17 11 -30 25 -13 14 -19 23 -13 20 7 -4 14 0
18 8 3 8 0 14 -6 12 -18 -3 -39 83 -32 128 24 148 157 218 262 138z m-20
-1196 c11 -32 1 -37 -83 -37 -78 0 -85 2 -85 20 0 16 8 19 58 22 77 4 107 3
110 -5z"/>
<path d="M4380 5106 c0 -2 8 -10 18 -17 15 -13 16 -12 3 4 -13 16 -21 21 -21
13z"/>
<path d="M5243 5435 c-136 -30 -133 -28 -133 -69 0 -44 23 -59 71 -47 19 5 66
14 104 21 108 18 132 28 137 54 3 12 1 33 -3 44 -11 28 -41 28 -176 -3z"/>
<path d="M3650 5379 c-14 -26 -6 -65 16 -73 9 -3 39 -9 67 -12 29 -3 70 -10
92 -15 61 -13 83 -11 105 11 23 23 25 39 7 64 -10 14 -39 22 -113 32 -141 19
-161 18 -174 -7z"/>
<path d="M5006 4914 c-28 -28 -19 -61 23 -84 48 -25 212 -79 225 -74 7 3 19
17 25 31 21 45 -5 67 -127 107 -126 41 -125 41 -146 20z"/>
<path d="M3878 4873 c-130 -46 -147 -59 -133 -101 13 -42 44 -42 163 4 62 23
119 48 127 54 22 18 19 67 -4 80 -11 5 -21 10 -23 9 -2 0 -60 -21 -130 -46z"/>
<path d="M5555 4324 c-66 -7 -192 -20 -280 -28 -129 -13 -163 -19 -173 -33
-10 -14 -13 -50 -9 -149 2 -72 7 -136 11 -143 6 -9 31 -11 95 -6 314 21 508
37 524 41 15 5 17 21 17 159 0 142 -2 155 -19 165 -11 5 -26 9 -33 9 -7 -1
-67 -7 -133 -15z m85 -164 c0 -33 -1 -60 -2 -60 -2 0 -97 -9 -213 -20 -115
-11 -216 -20 -222 -20 -9 0 -13 20 -13 65 l0 65 43 1 c23 1 101 7 172 14 72 6
154 13 183 13 l52 2 0 -60z"/>
<path d="M3626 4194 c-11 -11 -16 -34 -16 -78 l0 -62 -55 -23 c-30 -13 -53
-27 -49 -32 11 -19 -33 6 -58 34 -28 29 -76 35 -70 9 1 -8 -2 -11 -8 -7 -5 3
-13 0 -15 -8 -8 -19 13 -70 25 -62 5 3 7 0 4 -9 -3 -9 2 -17 14 -20 19 -7 19
-10 -14 -85 -19 -44 -34 -88 -34 -99 0 -16 -9 -20 -56 -25 -63 -7 -84 -20 -84
-53 0 -36 41 -58 94 -51 l44 6 7 -49 c4 -27 16 -66 27 -87 22 -41 32 -87 17
-78 -9 6 -49 -52 -49 -71 0 -23 28 -46 55 -46 26 0 42 12 64 51 7 11 13 11 37
-2 16 -8 46 -17 67 -21 l37 -7 0 -60 c0 -54 2 -61 25 -71 45 -20 71 1 79 65 6
49 10 55 44 73 55 27 55 28 47 14 -5 -9 -4 -11 4 -6 6 4 9 11 6 16 -7 11 24
22 38 13 7 -4 17 -8 22 -8 6 0 10 -7 10 -15 1 -8 6 -14 13 -13 7 2 11 -3 9
-10 -4 -20 55 -21 70 -1 21 29 15 55 -23 90 l-35 34 32 67 c17 36 35 78 38 92
6 21 16 27 52 34 52 10 78 36 72 72 -6 29 -36 40 -89 32 -35 -6 -35 -6 -31 28
3 19 1 32 -4 29 -5 -3 -10 5 -10 18 -1 13 -2 30 -3 40 -1 9 -5 20 -9 24 -4 5
-5 0 -2 -11 3 -11 -3 -4 -14 15 -17 32 -18 37 -4 52 9 10 20 15 26 11 5 -3 7
-1 4 5 -4 5 1 24 10 40 14 25 15 33 4 46 -7 9 -18 13 -24 9 -5 -3 -7 -1 -3 5
10 17 -10 23 -39 12 -16 -6 -23 -14 -19 -22 4 -7 3 -8 -4 -4 -6 4 -18 -4 -27
-18 l-16 -24 -57 29 c-31 16 -63 29 -69 29 -9 0 -13 18 -13 55 0 46 -4 60 -25
80 -28 29 -47 31 -69 9z m153 -277 c20 -12 41 -20 46 -19 6 2 7 0 3 -3 -11
-11 11 -47 24 -39 6 4 8 3 5 -3 -3 -5 0 -31 8 -56 8 -26 16 -66 19 -88 5 -42
-17 -143 -35 -165 -6 -7 -7 -19 -3 -25 4 -7 3 -9 -3 -6 -5 4 -23 -7 -39 -24
-57 -61 -142 -85 -208 -59 -14 5 -44 26 -67 47 -23 21 -45 38 -48 38 -3 0 -5
6 -3 13 2 8 0 12 -5 9 -8 -5 -9 -2 -19 108 -5 57 -2 80 15 126 25 65 87 143
108 135 8 -3 11 -2 8 4 -3 5 7 16 22 25 37 21 125 12 172 -18z"/>
<path d="M3545 3850 c-4 -6 -10 -8 -15 -5 -4 3 -14 -3 -21 -13 -12 -15 -12
-16 2 -5 9 7 18 11 21 8 3 -3 11 1 18 10 7 8 10 15 7 15 -3 0 -9 -5 -12 -10z"/>
<path d="M4016 3847 c3 -10 9 -15 12 -12 3 3 0 11 -7 18 -10 9 -11 8 -5 -6z"/>
<path d="M5560 3829 c-52 -4 -135 -10 -185 -13 -49 -4 -110 -9 -135 -12 -25
-2 -97 -9 -160 -14 -90 -7 -118 -13 -127 -27 -17 -23 -16 -48 3 -67 19 -19 11
-19 214 -2 91 8 251 20 355 27 143 9 194 15 208 27 37 33 7 93 -46 89 -18 -1
-75 -4 -127 -8z"/>
<path d="M5480 3544 c-107 -7 -337 -23 -510 -34 -173 -12 -371 -25 -440 -30
-69 -5 -144 -10 -167 -10 -36 0 -45 -4 -57 -27 -15 -31 -7 -67 17 -76 8 -3 61
-1 118 4 57 5 250 18 429 29 891 54 843 50 863 72 32 37 10 90 -36 87 -12 -1
-110 -8 -217 -15z"/>
<path d="M5390 3265 c-113 -7 -398 -22 -635 -35 -301 -16 -434 -27 -444 -36
-19 -17 -17 -65 4 -80 19 -14 40 -14 550 17 176 11 437 24 580 30 284 12 305
17 305 67 0 58 0 58 -360 37z"/>
<path d="M5625 2999 c-49 -4 -215 -10 -369 -14 -253 -7 -280 -9 -297 -26 -11
-11 -19 -30 -19 -43 0 -50 5 -50 362 -37 409 15 427 17 440 47 12 26 4 70 -14
76 -7 2 -53 1 -103 -3z"/>
<path d="M6551 7104 c0 -11 3 -14 6 -6 3 7 2 16 -1 19 -3 4 -6 -2 -5 -13z"/>
<path d="M6551 7064 c0 -11 3 -14 6 -6 3 7 2 16 -1 19 -3 4 -6 -2 -5 -13z"/>
<path d="M6555 6585 c0 -231 1 -324 2 -207 2 117 2 306 0 420 -1 114 -2 18 -2
-213z"/>
<path d="M6554 5885 c0 -110 2 -156 3 -103 2 53 2 143 0 200 -1 57 -3 13 -3
-97z"/>
<path d="M6492 6040 c0 -19 2 -27 5 -17 2 9 2 25 0 35 -3 9 -5 1 -5 -18z"/>
<path d="M6552 5660 c0 -14 2 -19 5 -12 2 6 2 18 0 25 -3 6 -5 1 -5 -13z"/>
<path d="M6552 4700 c0 -14 2 -19 5 -12 2 6 2 18 0 25 -3 6 -5 1 -5 -13z"/>
<path d="M6553 4635 c0 -22 2 -30 4 -17 2 12 2 30 0 40 -3 9 -5 -1 -4 -23z"/>
<path d="M6562 4250 c0 -19 2 -27 5 -17 2 9 2 25 0 35 -3 9 -5 1 -5 -18z"/>
<path d="M6563 4160 c0 -25 2 -35 4 -22 2 12 2 32 0 45 -2 12 -4 2 -4 -23z"/>
<path d="M6492 4100 c0 -14 2 -19 5 -12 2 6 2 18 0 25 -3 6 -5 1 -5 -13z"/>
<path d="M6491 4024 c0 -11 3 -14 6 -6 3 7 2 16 -1 19 -3 4 -6 -2 -5 -13z"/>
<path d="M6564 3755 c0 -55 1 -76 3 -47 2 29 2 74 0 100 -2 26 -3 2 -3 -53z"/>
<path d="M6554 2940 c0 -107 2 -151 3 -97 2 53 2 141 0 195 -1 53 -3 9 -3 -98z"/>
<path d="M6491 2374 c0 -11 3 -14 6 -6 3 7 2 16 -1 19 -3 4 -6 -2 -5 -13z"/>
</g>
</svg>
